<svg width="153" height="35" viewBox="0 0 153 35" fill="none" xmlns="http://www.w3.org/2000/svg">
<path d="M11.1509 15.9338C11.219 16.6807 11.214 17.429 11.136 18.1788C11.0673 18.9172 11.0199 19.659 10.9938 20.404C10.9485 20.4814 10.8971 20.5488 10.8396 20.6063C10.7915 20.6526 10.7439 20.704 10.6968 20.7606L10.711 20.9162C10.7242 21.0614 10.7167 21.2085 10.6885 21.3576L10.6179 21.7876C10.5991 21.9253 10.5859 22.0677 10.5784 22.2149C10.57 22.3516 10.5931 22.4907 10.6479 22.6321C10.5508 22.9443 10.4858 23.2641 10.4529 23.5913C10.4191 23.9082 10.3909 24.2298 10.3683 24.5561C10.3562 24.8815 10.3388 25.2073 10.3163 25.5336C10.2938 25.8599 10.25 26.183 10.185 26.5027L10.2219 26.7347C10.2729 27.0647 10.2772 27.3991 10.2349 27.7376C10.2029 28.0753 10.2021 28.4101 10.2324 28.742C10.2522 28.9599 10.2768 29.172 10.3061 29.3786C10.3458 29.5842 10.3751 29.7907 10.394 29.9982C10.4148 30.2264 10.4187 30.4404 10.4055 30.6404C10.498 30.7366 10.5711 30.8502 10.6249 30.9812L10.8018 31.373C10.866 31.5032 10.9344 31.6224 11.0071 31.7309C11.0797 31.8393 11.1811 31.919 11.3113 31.9699C11.4207 31.9076 11.5201 31.8514 11.6097 31.8014C11.7106 31.7608 11.8181 31.7353 11.9322 31.7249C12.0982 31.7098 12.2477 31.7432 12.3807 31.8252C12.4109 31.9271 12.426 32.0355 12.4261 32.1506C12.4365 32.2647 12.4573 32.3779 12.4884 32.4901C12.3941 32.6033 12.2829 32.7023 12.1547 32.7873C12.0368 32.8712 11.9246 32.9599 11.8181 33.0533C11.8199 33.0741 11.8218 33.0948 11.8237 33.1155C11.8369 33.1457 11.8445 33.1712 11.8464 33.1919C11.8653 33.3994 11.8017 33.5621 11.6556 33.68C11.5207 33.8074 11.3652 33.8791 11.1888 33.8952C11.1369 33.8999 11.0634 33.8962 10.9681 33.8839C10.8729 33.8717 10.7979 33.8524 10.7432 33.826C10.4461 33.6648 10.1791 33.4329 9.94229 33.1303C9.70548 32.8276 9.50262 32.4957 9.3337 32.1345C9.17516 31.7725 9.0416 31.3976 8.93303 31.01C8.83577 30.6319 8.77296 30.2872 8.74457 29.976L8.71334 29.6337C8.70294 29.5196 8.7029 29.4045 8.71324 29.2885C8.71604 29.2046 8.73111 29.1404 8.75845 29.0961C8.78484 29.0414 8.79378 28.9674 8.78526 28.874C8.73511 28.3242 8.71608 27.7716 8.72818 27.2161C8.75064 26.6597 8.7783 26.1028 8.81114 25.5454C8.84303 24.9777 8.87021 24.4156 8.89268 23.8591C8.92552 23.3018 8.92676 22.7421 8.89641 22.18C8.78514 22.2215 8.70359 22.3022 8.65176 22.422C8.59898 22.5314 8.50752 22.6182 8.3774 22.6823C8.17003 23.0464 7.91786 23.378 7.62088 23.677C7.33332 23.9648 7.06936 24.2817 6.82897 24.6279C6.68942 24.7034 6.55553 24.7836 6.4273 24.8685C6.29906 24.9534 6.18309 25.0581 6.07939 25.1827C5.72953 25.246 5.44618 25.4078 5.22935 25.6681L5.08789 25.6654C4.95303 25.6777 4.83233 25.7305 4.72579 25.8239C4.64281 25.8315 4.5584 25.8235 4.47257 25.7999C4.39712 25.7754 4.31789 25.767 4.23491 25.7745C4.14154 25.7831 4.06658 25.8213 4.01002 25.8892C3.70256 25.844 3.438 25.7531 3.21633 25.6164C2.99372 25.4694 2.78572 25.3105 2.59234 25.1399C2.40838 24.9579 2.21924 24.7764 2.02491 24.5954C1.84001 24.4031 1.62635 24.2395 1.38394 24.1047C1.29994 23.8718 1.22348 23.6644 1.15458 23.4824C1.08474 23.29 1.02055 23.1023 0.962026 22.9194C0.913874 22.7355 0.870435 22.546 0.83171 22.3508C0.781665 22.1461 0.744815 21.9141 0.72116 21.6548C0.656818 20.9494 0.624542 20.2515 0.624334 19.5612C0.62318 18.8605 0.632873 18.164 0.653412 17.4718C0.793842 17.1766 0.885698 16.8648 0.928981 16.5366C0.981691 16.1971 1.02403 15.8585 1.05599 15.5209C1.09833 15.1823 1.14632 14.8485 1.19998 14.5193C1.26401 14.1892 1.37756 13.886 1.54063 13.6096L1.64955 13.5997C1.76366 13.5893 1.86834 13.5902 1.9636 13.6024C2.06828 13.6033 2.16588 13.584 2.25641 13.5443C2.42529 13.7904 2.5244 14.0742 2.55374 14.3958C2.57266 14.6033 2.56565 14.8131 2.53271 15.0253C2.51014 15.2366 2.47719 15.4488 2.43387 15.662C2.39998 15.8638 2.36657 16.0708 2.33362 16.283C2.30068 16.4952 2.28848 16.7055 2.29703 16.9139C2.24331 17.013 2.20562 17.1158 2.18396 17.2224C2.17267 17.328 2.12885 17.4209 2.05248 17.5011L2.08791 17.7175C2.12948 17.9438 2.11822 18.1645 2.05416 18.3796C2.00047 18.5936 1.97366 18.8158 1.97373 19.0459C1.97376 19.1609 1.98417 19.275 2.00495 19.3882C2.03611 19.5004 2.05689 19.6136 2.0673 19.7277C2.0919 19.9974 2.10565 20.2629 2.10856 20.5241C2.12184 20.7844 2.14079 21.0494 2.16539 21.3191C2.18336 21.5162 2.22162 21.7062 2.28014 21.8892C2.33772 22.0617 2.37077 22.1947 2.37929 22.2881C2.38591 22.3607 2.3765 22.4295 2.35106 22.4946C2.39164 22.5955 2.44165 22.6851 2.50109 22.7633L2.67798 22.9825C2.73647 23.0504 2.79072 23.1292 2.84073 23.2187C2.8898 23.2979 2.92472 23.3941 2.9455 23.5073C3.39546 23.8533 3.92127 23.9988 4.52294 23.9439C4.86527 23.9127 5.18823 23.7839 5.49184 23.5574C5.80581 23.3301 6.10044 23.0626 6.37573 22.7551C6.66139 22.4466 6.93102 22.1344 7.18461 21.8184C7.44763 21.491 7.70549 21.2217 7.95817 21.0104C8.0345 20.8151 8.13534 20.602 8.2607 20.3709C8.39549 20.1285 8.53028 19.8861 8.66507 19.6436C8.79891 19.3909 8.91813 19.1499 9.02275 18.9207C9.12641 18.6811 9.19001 18.4609 9.21352 18.26C9.22575 18.1647 9.22714 18.0652 9.21768 17.9615C9.20821 17.8578 9.20865 17.7479 9.21899 17.6319C9.23774 17.2641 9.26687 16.8953 9.30636 16.5256C9.35624 16.155 9.36414 15.7829 9.33008 15.4095C9.32345 15.3369 9.31212 15.2699 9.29606 15.2086C9.29039 15.1464 9.27858 15.0742 9.26063 14.9922C9.33416 14.8809 9.40863 14.78 9.48405 14.6894C9.55853 14.5885 9.61602 14.4734 9.65653 14.3442C9.79328 14.3526 9.91824 14.3465 10.0314 14.3257C10.1436 14.2945 10.262 14.2733 10.3865 14.2619C10.5421 14.2477 10.6911 14.276 10.8335 14.3467C10.9978 14.886 11.1035 15.4151 11.1509 15.9338ZM22.548 19.0991C22.4943 19.1981 22.4674 19.3052 22.4675 19.4202C22.4675 19.5353 22.4718 19.6395 22.4803 19.7328C22.4916 19.8573 22.503 19.9818 22.5143 20.1063C22.5351 20.2195 22.5507 20.3331 22.5611 20.4472L22.5824 20.6806C22.5683 20.7551 22.5438 20.8306 22.5089 20.907C22.4741 20.9834 22.4496 21.0588 22.4354 21.1333C22.3252 21.5304 22.2876 21.9209 22.3226 22.3047L22.3255 22.3358C22.2849 22.465 22.2435 22.5839 22.2011 22.6923C22.169 22.7998 22.137 22.9074 22.105 23.0149C22.072 23.112 22.0503 23.2186 22.04 23.3346C22.0287 23.4402 22.0349 23.5652 22.0585 23.7095C21.9464 24.0858 21.7848 24.4353 21.5736 24.7579C21.3615 25.0701 21.1555 25.3922 20.9557 25.7242C20.7454 25.8271 20.5531 25.9545 20.3787 26.1063C20.2146 26.2573 20.0572 26.4233 19.9063 26.6044C19.5942 26.7375 19.2887 26.8857 18.9898 27.0489C18.6909 27.2121 18.4274 27.4192 18.1992 27.6702C18.004 27.7089 17.8097 27.758 17.6164 27.8175C17.4231 27.8769 17.2369 27.9567 17.0577 28.0567L16.871 28.0737C16.7776 28.0822 16.7083 28.0676 16.663 28.0299C16.5348 28.1149 16.3995 28.1795 16.2571 28.2239C16.1138 28.2579 15.9695 28.2815 15.8242 28.2947C15.6375 28.3118 15.4498 28.3184 15.2612 28.3147C15.082 28.2997 14.8977 28.2851 14.7081 28.271C14.5911 28.1352 14.4359 28.0396 14.2426 27.984C14.0483 27.918 13.8752 27.8554 13.7234 27.796C13.3847 27.4085 13.1304 27.029 12.9606 26.6575C12.7897 26.2756 12.6095 25.8475 12.4198 25.3731C12.4273 25.226 12.4508 25.0827 12.4904 24.9431C12.529 24.7931 12.5356 24.6356 12.51 24.4706C12.6476 23.9141 12.8469 23.4043 13.108 22.9412C13.3785 22.4668 13.6924 22.0093 14.0497 21.5687C14.044 21.5065 14.0497 21.4537 14.0666 21.4103C14.094 21.366 14.0935 21.3032 14.0652 21.2222C14.0765 21.2316 14.0977 21.2349 14.1288 21.232C14.2118 21.2245 14.2618 21.199 14.2787 21.1556C14.2948 21.1018 14.2947 21.0443 14.2787 20.983C14.6304 20.7104 14.9424 20.4047 15.2149 20.0661C15.4977 19.7265 15.8268 19.435 16.202 19.1915C16.2246 19.0953 16.2694 19.0128 16.3363 18.9439C16.4033 18.8751 16.4537 18.7972 16.4876 18.7105C16.8111 18.5868 17.0991 18.4193 17.3518 18.208C17.6045 17.9967 17.8746 17.8047 18.1622 17.632C18.3197 17.5235 18.4696 17.4471 18.612 17.4027C18.7638 17.347 18.926 17.2904 19.0986 17.2328C19.1589 17.2064 19.2146 17.1856 19.2655 17.1705C19.3164 17.1554 19.373 17.145 19.4352 17.1393C19.622 17.1223 19.8068 17.1421 19.9898 17.1986C20.1718 17.2448 20.3562 17.2593 20.5429 17.2423C20.5948 17.2376 20.6363 17.2338 20.6674 17.2309C20.7079 17.2168 20.7485 17.2026 20.789 17.1885C20.9853 17.3902 21.2234 17.5358 21.5036 17.6254C21.58 17.7753 21.6649 17.9035 21.7583 18.0101C21.8621 18.1157 21.9658 18.2212 22.0696 18.3268C22.1724 18.4221 22.2663 18.5338 22.3512 18.662C22.4456 18.7789 22.5112 18.9246 22.548 19.0991ZM21.0658 20.0501C21.061 19.9983 21.0516 19.9521 21.0374 19.9115C20.9308 19.8899 20.8285 19.8574 20.7304 19.814C20.6323 19.7707 20.5262 19.7542 20.4121 19.7646C20.3395 19.7712 20.2683 19.7934 20.1985 19.8311C20.1815 19.7595 20.1457 19.7104 20.091 19.6841C20.0466 19.6567 19.9924 19.6355 19.9283 19.6204C19.8736 19.5941 19.8146 19.5785 19.7514 19.5738C19.6977 19.5578 19.6481 19.5309 19.6029 19.4932C19.5642 19.4131 19.5203 19.3334 19.4712 19.2542C19.4316 19.1637 19.3632 19.1019 19.2661 19.0689C19.1812 19.1708 19.0794 19.2586 18.9606 19.3322C18.8408 19.3954 18.7159 19.4591 18.5858 19.5232C18.466 19.5865 18.3472 19.6601 18.2293 19.744C18.1219 19.8271 18.0314 19.9242 17.9578 20.0355L17.6777 20.0611C17.6259 20.1809 17.5458 20.2771 17.4373 20.3497C17.328 20.412 17.2365 20.4988 17.163 20.6101C17.0046 20.7082 16.8584 20.8262 16.7246 20.9639C16.6001 21.0903 16.4766 21.2271 16.3541 21.3742C16.2306 21.511 16.1075 21.653 15.985 21.8002C15.8728 21.9464 15.7493 22.0831 15.6145 22.2105C15.5061 22.5133 15.3789 22.7811 15.2328 23.0141C15.0961 23.2358 14.9651 23.4622 14.8397 23.6933C14.7247 23.9234 14.6272 24.1729 14.5471 24.4417C14.4764 24.6992 14.4581 25.0146 14.4922 25.3881L14.5064 25.5437C14.5111 25.5956 14.521 25.6469 14.5362 25.6979C14.6843 25.8308 14.8074 25.9765 14.9055 26.1349C15.014 26.2923 15.1753 26.3979 15.3894 26.4516C15.6044 26.5157 15.8256 26.5321 16.0529 26.5009C16.2905 26.4688 16.5211 26.4739 16.7446 26.5163C17.234 26.3775 17.6975 26.1835 18.135 25.9344C18.582 25.674 18.9992 25.3745 19.3867 25.0358C19.4442 24.9782 19.5121 24.9197 19.5903 24.8603C19.6677 24.7905 19.7294 24.7221 19.7756 24.6551C19.8227 24.5985 19.859 24.5377 19.8845 24.4726C19.9203 24.4066 19.9566 24.3457 19.9933 24.2901C20.064 24.1477 20.1451 24.0043 20.2365 23.86C20.328 23.7157 20.4255 23.5812 20.5292 23.4567C20.5603 23.2238 20.6078 22.9998 20.6719 22.7847C20.735 22.5593 20.7986 22.3391 20.8627 22.124C20.9267 21.909 20.9748 21.6902 21.0068 21.4676C21.0491 21.2441 21.0594 21.013 21.0377 20.7744C21.033 20.7226 21.0226 20.666 21.0065 20.6047C21.0008 20.5425 20.9904 20.4859 20.9753 20.435C21.0479 20.3133 21.0781 20.185 21.0658 20.0501ZM33.9076 24.6056C33.8803 24.765 33.8247 24.9008 33.7408 25.0131C33.6569 25.1253 33.5565 25.2286 33.4396 25.323C33.3331 25.4164 33.2157 25.5055 33.0875 25.5904C32.9583 25.665 32.8352 25.7494 32.7183 25.8438L32.516 25.8622C32.0803 25.9019 31.7337 25.829 31.4762 25.6433C31.2281 25.4462 31.0277 25.1978 30.8748 24.8979C30.721 24.5877 30.5964 24.2539 30.501 23.8965C30.416 23.5381 30.3183 23.2123 30.2079 22.9191C30.0929 23.0342 30.0005 23.1681 29.9308 23.3209C29.8601 23.4633 29.7842 23.6062 29.7031 23.7496C29.6324 23.892 29.5453 24.0255 29.4415 24.15C29.3482 24.2736 29.2153 24.3642 29.0427 24.4218C29.0182 24.4972 28.9885 24.5731 28.9537 24.6495C28.9292 24.725 28.9155 24.8047 28.9127 24.8886C28.6958 25.0339 28.5016 25.1981 28.33 25.3811C28.1584 25.5641 27.9873 25.7523 27.8167 25.9457C27.6461 26.1391 27.4698 26.3277 27.2878 26.5117C27.1153 26.6843 26.9144 26.8334 26.6853 26.9589C26.674 26.9495 26.6528 26.9462 26.6216 26.949C26.4972 26.9604 26.3859 27.0019 26.2878 27.0736C26.1888 27.1349 26.0771 27.1713 25.9526 27.1826C25.8696 27.1902 25.7904 27.1817 25.7149 27.1572C25.6498 27.1318 25.5791 27.1016 25.5027 27.0667C25.4367 27.0309 25.3664 27.006 25.2919 26.9918C25.2174 26.9777 25.1391 26.9796 25.0571 26.9976C24.9363 26.8203 24.7807 26.6619 24.5901 26.5224C24.409 26.3716 24.2882 26.1943 24.2278 25.9906C24.1985 25.8991 24.1745 25.8072 24.1556 25.7148C24.1461 25.611 24.1263 25.5082 24.0961 25.4064C24.0508 25.2536 23.9951 25.1018 23.929 24.9509C23.862 24.7897 23.8054 24.6275 23.7591 24.4644C23.7854 24.1796 23.8094 23.8688 23.831 23.5321C23.8412 23.186 23.8624 22.8441 23.8943 22.5065C23.9357 22.1575 23.9997 21.8274 24.0864 21.5162C24.1825 21.1936 24.314 20.9149 24.4808 20.68L24.4553 20.5725C24.4402 20.4066 24.4571 20.2481 24.5061 20.0972C24.5551 19.9463 24.6098 19.8001 24.6701 19.6586C24.7304 19.5171 24.7803 19.3766 24.8199 19.237C24.8595 19.0974 24.8561 18.9461 24.8099 18.7829C24.9287 18.7093 25.0536 18.6456 25.1847 18.5918C25.3158 18.5381 25.4539 18.5045 25.5991 18.4913C25.734 18.479 25.8604 18.4884 25.9783 18.5195C25.9651 18.6043 26.0061 18.6529 26.1014 18.6651L26.1056 18.7118C26.1255 18.9297 26.119 19.1447 26.086 19.3569C26.0531 19.5691 26.0098 19.7822 25.9561 19.9963C25.9014 20.2001 25.8473 20.409 25.7936 20.6231C25.7493 20.8258 25.7211 21.0324 25.7089 21.2427C25.6684 21.2568 25.6391 21.2804 25.6212 21.3134C25.6137 21.3455 25.6061 21.3776 25.5986 21.4096C25.5911 21.4417 25.5779 21.4691 25.559 21.4917C25.5402 21.5143 25.51 21.5276 25.4685 21.5313C25.4394 21.9001 25.4051 22.2693 25.3656 22.639C25.3355 22.9974 25.337 23.3581 25.3701 23.7212C25.39 23.9391 25.4311 24.1602 25.4934 24.3846C25.5557 24.6091 25.6534 24.8198 25.7864 25.0169L25.8473 24.9956C25.9614 24.9852 26.0519 25.0031 26.1189 25.0493C26.1962 25.0946 26.2943 25.1379 26.4132 25.1794C26.4943 25.1511 26.5697 25.118 26.6395 25.0803C26.7083 25.0322 26.7333 24.9619 26.7144 24.8695C26.8483 24.8468 26.9596 24.8053 27.0482 24.7449C27.1359 24.6741 27.2127 24.5991 27.2787 24.5199L27.4922 24.2808C27.5686 24.2006 27.6624 24.1397 27.7737 24.0982C27.768 24.0359 27.7793 23.9878 27.8076 23.9539L27.8924 23.852C27.9207 23.818 27.9386 23.785 27.9462 23.753C27.9631 23.7096 27.9631 23.6521 27.9461 23.5804C28.0697 23.5587 28.1602 23.519 28.2177 23.4615C28.2856 23.403 28.3426 23.3403 28.3888 23.2733C28.4444 23.195 28.4949 23.1172 28.5401 23.0398C28.5853 22.9625 28.6471 22.8941 28.7254 22.8346C28.7838 22.6724 28.8634 22.456 28.9642 22.1853C29.0754 21.9136 29.1805 21.6321 29.2794 21.3406C29.3887 21.0482 29.4787 20.7733 29.5494 20.5158C29.6295 20.247 29.6634 20.0452 29.6511 19.9103C29.6463 19.8585 29.6265 19.8132 29.5916 19.7746C29.5671 19.735 29.5576 19.6887 29.5633 19.6359L29.559 19.5893C29.6325 19.4779 29.6947 19.3572 29.7456 19.2271C29.8069 19.0959 29.8686 18.97 29.9308 18.8493C30.0034 18.7276 30.0821 18.6158 30.167 18.514C30.2518 18.4121 30.3645 18.3286 30.505 18.2635C30.6757 18.3002 30.845 18.3214 31.0129 18.327C31.1911 18.3316 31.3609 18.358 31.5221 18.406C31.5562 18.6644 31.6095 18.9629 31.6823 19.3014C31.755 19.64 31.8541 19.9238 31.9796 20.153C31.9919 20.2878 31.9985 20.418 31.9995 20.5434C32.0109 20.6679 32.0222 20.7924 32.0336 20.9168C32.0525 21.1243 32.0771 21.3365 32.1073 21.5534C32.1479 21.7693 32.2027 21.9683 32.2716 22.1503C32.2132 22.3125 32.192 22.4818 32.2081 22.6582C32.2299 22.8968 32.287 23.1217 32.3795 23.3329C32.471 23.5338 32.5432 23.7521 32.5961 23.9878C32.748 24.1622 32.9329 24.2395 33.1507 24.2196C33.2026 24.2149 33.2436 24.2059 33.2738 24.1927C33.3143 24.1786 33.3544 24.1592 33.394 24.1347C33.4855 24.2205 33.5666 24.3072 33.6374 24.3949C33.7176 24.4713 33.8077 24.5415 33.9076 24.6056ZM37.6735 15.6641C37.6858 15.7989 37.6627 15.8899 37.6043 15.9371C37.5449 15.9739 37.509 16.0399 37.4968 16.1352C37.477 16.2625 37.4578 16.395 37.4389 16.5327C37.4305 16.6695 37.4112 16.802 37.3811 16.9302C37.2313 17.5819 36.9858 18.1587 36.6446 18.6605C36.3137 19.1614 35.9522 19.6703 35.56 20.1872C35.4176 20.2316 35.2842 20.2595 35.1597 20.2708C35.0248 20.2831 34.9084 20.2676 34.8103 20.2242C34.7122 20.1809 34.6023 20.1229 34.4806 20.0503C34.4636 19.9787 34.4471 19.9122 34.431 19.8509C34.4244 19.7783 34.4178 19.7057 34.4112 19.6331L34.3856 19.353C34.3752 19.2389 34.3766 19.1394 34.3898 19.0545C34.4011 18.9489 34.4402 18.8616 34.5071 18.7927C34.574 18.7239 34.6061 18.6164 34.6032 18.4702C34.6249 18.4787 34.6513 18.4815 34.6824 18.4786C34.7239 18.4749 34.7588 18.456 34.7871 18.422C34.8154 18.3881 34.8512 18.3796 34.8946 18.3965C35.3612 17.5486 35.6754 16.636 35.8373 15.659C35.7797 15.4864 35.7174 15.3195 35.6504 15.1582C35.5938 14.996 35.5117 14.8414 35.4042 14.6943C35.4579 14.5953 35.4899 14.4878 35.5003 14.3718C35.52 14.2444 35.5459 14.127 35.578 14.0195C35.6194 13.9006 35.6835 13.8007 35.7702 13.7195C35.8664 13.6271 36.013 13.5719 36.2101 13.5539C36.4072 13.5359 36.6091 13.5698 36.8156 13.6556C37.0212 13.7309 37.2028 13.8294 37.3604 13.9511C37.3519 13.9727 37.35 14.0095 37.3547 14.0614C37.3651 14.1755 37.4001 14.2717 37.4595 14.3499C37.5284 14.4169 37.5675 14.5022 37.577 14.606C37.5865 14.7097 37.5804 14.8148 37.5587 14.9214C37.5474 15.027 37.547 15.1369 37.5574 15.251C37.5649 15.334 37.5829 15.4161 37.6112 15.4972C37.6499 15.5773 37.6707 15.6329 37.6735 15.6641ZM59.3474 22.0969C59.3409 22.2544 59.2947 22.3789 59.2089 22.4704C59.1335 22.5609 59.042 22.6477 58.9346 22.7308C58.8817 22.7251 58.8294 22.7247 58.7775 22.7294C58.7351 22.7228 58.6879 22.7219 58.6361 22.7266C58.3135 22.7456 58.0113 22.815 57.7294 22.9348C57.4578 23.0537 57.1735 23.1477 56.8764 23.2166C56.7746 23.2468 56.677 23.2662 56.5836 23.2747C56.4997 23.2719 56.412 23.2851 56.3205 23.3144C55.9933 23.3965 55.6444 23.4702 55.2738 23.5354C54.9031 23.6006 54.5335 23.6761 54.1648 23.762C53.7951 23.8376 53.432 23.9282 53.0756 24.034C52.7286 24.1284 52.4051 24.252 52.1053 24.4049C52.0723 24.387 52.0392 24.3691 52.0062 24.3512C51.9723 24.3229 51.9345 24.3106 51.8931 24.3144C51.7893 24.3239 51.6922 24.3484 51.6017 24.3881C51.5111 24.4277 51.4187 24.4466 51.3244 24.4447C51.2264 24.5164 51.1165 24.5735 50.9949 24.616C50.8826 24.6472 50.7652 24.6788 50.6426 24.7109C50.5295 24.7317 50.4173 24.7628 50.306 24.8044C50.1947 24.8459 50.091 24.9129 49.9948 25.0053C49.9081 24.9714 49.8024 24.9601 49.678 24.9715C49.5629 24.9715 49.4813 24.9371 49.4332 24.8683C49.205 25.0042 48.9575 25.1 48.6906 25.1557C48.4341 25.2105 48.1705 25.245 47.8999 25.2592C47.7226 25.2649 47.5179 25.2574 47.2859 25.2367C47.0539 25.2161 46.8205 25.1798 46.5856 25.128C46.3498 25.0658 46.1287 24.9919 45.9221 24.9061C45.7146 24.81 45.5519 24.6889 45.434 24.5427C45.3519 24.4456 45.2896 24.3362 45.2471 24.2146C45.2047 24.0929 45.1235 24.0062 45.0037 23.9544C45.0131 23.7129 45.0281 23.4762 45.0488 23.2442C45.0695 23.0122 45.0897 22.775 45.1094 22.5326C45.3008 22.3374 45.4809 22.1327 45.6496 21.9185C45.8184 21.7044 45.9758 21.4808 46.1219 21.2479C46.3105 21.1365 46.4816 21.0058 46.6353 20.8558C46.7993 20.7049 46.9582 20.5544 47.1119 20.4044C47.275 20.2431 47.4334 20.0875 47.587 19.9375C47.7511 19.7865 47.9269 19.6502 48.1146 19.5285C48.1391 19.453 48.1754 19.3922 48.2234 19.346C48.281 19.2884 48.3389 19.2361 48.3974 19.1889C48.4549 19.1313 48.5072 19.0743 48.5544 19.0177C48.6006 18.9507 48.6302 18.8748 48.6434 18.7899C48.9866 18.5389 49.2779 18.2352 49.5174 17.8786C49.7568 17.5221 49.8991 17.1325 49.9442 16.71C49.7546 16.5809 49.5438 16.506 49.3118 16.4853C49.0893 16.4533 48.8577 16.4378 48.6172 16.4388C48.4088 16.4474 48.191 16.4672 47.9637 16.4984C47.7468 16.5287 47.5233 16.5438 47.2932 16.5439C47.0716 16.6373 46.8373 16.7058 46.5902 16.7492C46.3535 16.7917 46.1168 16.8342 45.8801 16.8767C45.6424 16.9089 45.4067 16.9618 45.1728 17.0354C44.9484 17.0977 44.7329 17.201 44.5264 17.3454C44.4849 17.3492 44.443 17.3478 44.4005 17.3412C44.3685 17.3337 44.3317 17.3318 44.2902 17.3356C43.9573 17.3555 43.6522 17.4513 43.375 17.623C43.0969 17.7844 42.8239 17.9452 42.5561 18.1056C42.5391 18.149 42.5316 18.1811 42.5335 18.2018C42.5392 18.2641 42.5552 18.3254 42.5816 18.3857C42.6175 18.4348 42.6383 18.4904 42.6439 18.5526C42.6345 18.564 42.6303 18.5748 42.6312 18.5852C42.6322 18.5955 42.6279 18.6064 42.6185 18.6177C42.6128 18.6705 42.6015 18.7186 42.5846 18.762C42.578 18.8045 42.5667 18.8526 42.5507 18.9063C42.4668 19.2487 42.4344 19.5811 42.4534 19.9037C42.4676 20.1743 42.4917 20.4388 42.5258 20.6972C42.5598 20.9556 42.5839 21.2202 42.5981 21.4908C42.6077 21.8247 42.5842 22.1406 42.5277 22.4386C42.6023 22.6829 42.6731 22.9431 42.7401 23.2194C42.8062 23.4854 42.8827 23.7504 42.9695 24.0144C43.0564 24.2784 43.1531 24.5363 43.2598 24.7881C43.3758 25.0285 43.5169 25.2563 43.6829 25.4712C43.6745 25.4929 43.6811 25.508 43.7028 25.5165C43.7244 25.525 43.7457 25.5283 43.7664 25.5264L43.8909 25.515C43.9428 25.5103 43.9654 25.5291 43.9588 25.5716C43.9824 25.6008 44.0008 25.6305 44.014 25.6607C44.0263 25.6805 44.0489 25.6993 44.0819 25.7173C44.1055 25.7465 44.1093 25.788 44.0933 25.8417C44.1018 26.0502 44.0675 26.2468 43.9902 26.4317C43.9129 26.6165 43.8734 26.8137 43.8716 27.023C43.7499 27.0655 43.6372 27.0915 43.5335 27.1009C43.3562 27.1066 43.1958 27.069 43.0525 26.9879C42.91 26.9172 42.7761 26.8248 42.6506 26.7108C42.5252 26.5967 42.4049 26.4821 42.2898 26.3671C42.1738 26.2417 42.0493 26.138 41.9163 26.056C41.8171 25.7722 41.7152 25.4572 41.6104 25.1111C41.516 24.7641 41.3796 24.4732 41.2013 24.2384C41.2343 24.1413 41.2446 24.0253 41.2323 23.8904C41.2238 23.682 41.1846 23.4816 41.1147 23.2892C41.0543 23.0856 41.025 22.879 41.0269 22.6697C41.0164 22.5556 41.0164 22.4405 41.0267 22.3245C41.0475 22.2076 41.0578 22.0916 41.0578 21.9765C41.0521 21.7992 41.0157 21.6299 40.9487 21.4687C40.8921 21.3065 40.8609 21.1367 40.8552 20.9594C40.858 20.8755 40.8664 20.7963 40.8806 20.7218C40.9041 20.636 40.939 20.5596 40.9852 20.4926C40.9219 20.3728 40.8955 20.255 40.9058 20.1389C40.9001 19.9617 40.9057 19.7938 40.9227 19.6353C40.9396 19.4769 40.9461 19.3194 40.9423 19.1628C40.9348 19.0799 40.9225 19.0025 40.9055 18.9309C40.8875 18.8488 40.8649 18.7724 40.8375 18.7017L40.6932 18.6678C40.631 18.6735 40.5701 18.6947 40.5107 18.7315C40.4617 18.7674 40.4183 18.8079 40.3806 18.8532C40.3429 18.8985 40.3099 18.9381 40.2816 18.9721C40.2524 18.9957 40.2222 19.0089 40.1911 19.0117C40.1704 19.0136 40.1444 19.016 40.1133 19.0188C40.0916 19.0103 40.0704 19.007 40.0497 19.0089C40.0289 19.0108 39.9893 19.0353 39.9309 19.0825C39.8828 19.1287 39.8196 19.1816 39.7413 19.241C39.6725 19.2891 39.6042 19.3424 39.5363 19.4009C39.4674 19.449 39.4127 19.4802 39.3722 19.4943C39.2562 19.484 39.1595 19.4562 39.0822 19.411C39.0143 19.3544 38.9468 19.303 38.8798 19.2568C38.8223 19.1993 38.7605 19.1527 38.6945 19.1168C38.6275 19.0707 38.5478 19.057 38.4554 19.0759C38.4186 19.0165 38.3969 18.9505 38.3903 18.8779C38.3733 18.8062 38.3666 18.7336 38.3704 18.66L38.3477 18.4111C38.408 18.2696 38.4966 18.1517 38.6135 18.0573C38.7191 17.9535 38.8365 17.8644 38.9657 17.7898L39.3532 17.5662C39.4824 17.4917 39.5998 17.4025 39.7054 17.2988L39.8454 17.286C40.0331 17.2793 40.1906 17.2283 40.3179 17.1331C40.4555 17.0368 40.5819 16.9312 40.6969 16.8161C40.811 16.6906 40.925 16.5651 41.0391 16.4397C41.1636 16.3133 41.3008 16.2118 41.4507 16.1354C41.5695 16.1769 41.6931 16.2127 41.8213 16.2428C41.9487 16.2626 42.0802 16.2715 42.216 16.2696C42.3509 16.2573 42.489 16.2237 42.6305 16.169C42.7719 16.1143 42.8789 16.0261 42.9515 15.9044C43.0053 15.9204 43.0482 15.9322 43.0803 15.9397C43.1218 15.9359 43.1684 15.9317 43.2203 15.9269C43.3769 15.9231 43.5306 15.8882 43.6814 15.8221C43.8314 15.7457 43.9752 15.6593 44.1128 15.5631C44.3212 15.5545 44.5226 15.5257 44.7168 15.4766C44.9205 15.4162 45.119 15.3563 45.3123 15.2968C45.516 15.2364 45.715 15.1816 45.9093 15.1325C46.113 15.0721 46.319 15.0376 46.5274 15.0291C46.8707 15.0082 47.205 14.9463 47.5303 14.8434C47.8557 14.7405 48.1904 14.6839 48.5347 14.6734C48.7742 14.662 49.0095 14.6615 49.2406 14.6718C49.481 14.6707 49.7201 14.6542 49.9578 14.622C50.0983 14.672 50.2228 14.7181 50.3313 14.7605C50.4492 14.7916 50.5901 14.7892 50.7542 14.7533C51.1117 15.0032 51.4424 15.3025 51.7461 15.6513L51.7703 15.9159C51.7817 16.1554 51.7615 16.3926 51.7097 16.6274C51.6579 16.8623 51.5905 17.0985 51.5076 17.3362C51.4341 17.5626 51.3502 17.7899 51.256 18.0181C51.1608 18.236 51.0708 18.4534 50.986 18.6704C50.3675 19.3439 49.7486 20.0123 49.1292 20.6754C48.5098 21.3386 47.8678 21.9829 47.2031 22.6084C47.1918 22.714 47.1692 22.8102 47.1353 22.897C47.1117 22.9828 47.099 23.0729 47.0971 23.1672C47.1019 23.2191 47.1108 23.2601 47.1241 23.2903C47.1986 23.3044 47.2646 23.3402 47.3221 23.3977C47.3891 23.4439 47.4165 23.5146 47.4042 23.6099L47.5443 23.5971C47.5962 23.5924 47.624 23.6108 47.6278 23.6523L47.8782 23.6451C48.2742 23.6299 48.6675 23.5836 49.0579 23.5061C49.4483 23.4287 49.8383 23.346 50.2277 23.2582C50.6276 23.1694 51.0227 23.0863 51.4131 23.0089C51.8026 22.9211 52.1939 22.854 52.5872 22.8076C52.6777 22.768 52.7739 22.7331 52.8757 22.7029C52.9776 22.6727 53.0671 22.6227 53.1445 22.5528L53.1911 22.5486C53.2638 22.542 53.3175 22.558 53.3524 22.5966C53.3977 22.6343 53.4571 22.6551 53.5307 22.6588C53.5826 22.6541 53.6335 22.639 53.6834 22.6135C53.7438 22.5871 53.8046 22.5659 53.8659 22.5498C54.0074 22.4951 54.1554 22.4554 54.3101 22.4308C54.4751 22.4053 54.6345 22.3751 54.7882 22.3402C55.3851 22.2334 55.9788 22.1479 56.5691 22.0836C57.1585 22.0089 57.7427 21.8772 58.3217 21.6884C58.3802 21.7563 58.4575 21.8015 58.5538 21.8241C58.649 21.8363 58.7499 21.8533 58.8565 21.8749C58.9621 21.8862 59.0579 21.9036 59.1437 21.9272C59.2399 21.9498 59.3078 22.0064 59.3474 22.0969ZM64.1223 14.4126L64.128 14.4749C64.0572 14.5023 64.0257 14.5574 64.0332 14.6404C63.9239 14.7027 63.8084 14.7551 63.6867 14.7975C63.5641 14.8296 63.4481 14.8768 63.3388 14.9391C63.2237 14.9391 63.1039 14.9448 62.9794 14.9562C62.8644 14.9562 62.7498 14.9615 62.6357 14.9719C62.3245 15.0002 62.0142 15.039 61.7049 15.0881C61.3956 15.1373 61.0844 15.1657 60.7713 15.1733C60.6336 15.2695 60.479 15.3516 60.3074 15.4196C60.1452 15.4762 59.9863 15.5116 59.8307 15.5258C59.7062 15.5372 59.5958 15.5316 59.4996 15.5089C59.262 15.6561 58.9966 15.785 58.7033 15.8954C58.4204 16.0049 58.1324 16.1148 57.8391 16.2252C57.5449 16.3253 57.2625 16.44 56.9918 16.5693C56.7306 16.6872 56.5043 16.8438 56.313 17.0391C56.3055 17.1862 56.3031 17.3329 56.306 17.4791C56.3079 17.6149 56.3151 17.7502 56.3274 17.8851C56.3406 18.0303 56.3581 18.1647 56.3798 18.2882C56.4119 18.4108 56.4596 18.532 56.5228 18.6517C56.5766 18.6677 56.635 18.6781 56.6982 18.6828C56.7718 18.6865 56.8345 18.686 56.8864 18.6813C56.9382 18.6766 56.9896 18.6667 57.0406 18.6516C57.0905 18.6261 57.1235 18.5865 57.1396 18.5327C57.2933 18.4978 57.4484 18.4784 57.6049 18.4746C57.7605 18.4604 57.9162 18.4462 58.0718 18.432C58.2274 18.4178 58.3773 18.3989 58.5216 18.3753C58.6762 18.3507 58.8243 18.311 58.9657 18.2563C59.1279 18.1997 59.2864 18.1591 59.441 18.1345C59.6061 18.109 59.7659 18.084 59.9206 18.0594C60.0752 18.0348 60.2346 18.0046 60.3987 17.9687C60.5618 17.9224 60.7278 17.8498 60.8966 17.7507C61.0361 17.7903 61.1734 17.8039 61.3082 17.7916C61.4534 17.7784 61.5944 17.776 61.7312 17.7844C61.8085 17.8296 61.8708 17.8815 61.918 17.94C61.9755 17.9975 62.0081 18.0677 62.0156 18.1507C62.0289 18.2959 61.9903 18.4459 61.8998 18.6006C61.8093 18.7553 61.7386 18.8977 61.6877 19.0279L61.5165 19.0435C61.2676 19.0662 61.0271 19.1247 60.7951 19.2191C60.5726 19.3022 60.3463 19.4013 60.1162 19.5164C59.8956 19.6202 59.6693 19.7193 59.4373 19.8137C59.2147 19.8967 58.979 19.9496 58.73 19.9723C58.6885 19.9761 58.665 20.0044 58.6593 20.0572C58.6631 20.0987 58.6556 20.1308 58.6367 20.1534C58.5839 20.1478 58.5056 20.1497 58.4019 20.1591C58.1633 20.1809 57.9374 20.2277 57.7243 20.2994C57.5112 20.3711 57.2905 20.4174 57.0623 20.4382C57.0001 20.4439 56.9378 20.4496 56.8756 20.4553C56.8124 20.4506 56.7492 20.4459 56.686 20.4412C56.6417 20.5289 56.5795 20.5921 56.4994 20.6308C56.4183 20.6591 56.3442 20.7077 56.2773 20.7766C56.2547 20.8728 56.2444 20.9888 56.2463 21.1246C56.2586 21.2594 56.2662 21.3999 56.2691 21.5461C56.2814 21.681 56.2828 21.8116 56.2734 21.938C56.264 22.0643 56.2315 22.1667 56.1759 22.245C56.191 22.2959 56.2344 22.3128 56.3061 22.2958C56.3768 22.2685 56.4159 22.2963 56.4235 22.3793C56.432 22.4726 56.4306 22.5721 56.4193 22.6778C56.4081 22.7834 56.4071 22.8881 56.4166 22.9918C56.4346 23.1889 56.4752 23.4049 56.5385 23.6397C56.6111 23.8632 56.7032 24.0692 56.8145 24.2578C56.9362 24.4454 57.0862 24.5991 57.2645 24.7188C57.4418 24.8281 57.655 24.8715 57.9039 24.8488C58.0699 24.8336 58.2227 24.7883 58.3622 24.7128C58.5018 24.6373 58.6116 24.5227 58.6917 24.369L58.7681 24.3463C58.8096 24.3425 58.8464 24.3444 58.8785 24.3519C58.9209 24.3585 58.9629 24.3599 59.0044 24.3561C59.0666 24.3505 59.1411 24.3071 59.2278 24.2259C59.324 24.1335 59.4244 24.0302 59.5291 23.916C59.6441 23.8009 59.7596 23.691 59.8755 23.5863C59.9906 23.4712 60.1032 23.3877 60.2136 23.3358C60.2729 23.184 60.3271 23.0326 60.3761 22.8817C60.4355 22.7298 60.5288 22.6063 60.6561 22.511L60.6149 22.0597C60.7083 21.9362 60.8077 21.8225 60.9133 21.7187C61.0293 21.614 61.1118 21.4862 61.1608 21.3353C61.2145 21.3513 61.2626 21.3626 61.3051 21.3692C61.3579 21.3748 61.4102 21.3753 61.4621 21.3705C61.5139 21.3658 61.5653 21.3559 61.6163 21.3408C61.6776 21.3247 61.7332 21.304 61.7832 21.2785C61.8766 21.385 61.9506 21.509 62.0054 21.6505C62.0695 21.7806 62.1436 21.9046 62.2276 22.0225C62.1513 22.2177 62.0627 22.4507 61.9618 22.7214C61.861 22.9921 61.7498 23.2637 61.6282 23.5363C61.5067 23.8089 61.3738 24.072 61.2296 24.3258C61.0948 24.5682 60.9552 24.7587 60.811 24.8974C60.7827 24.9314 60.7186 24.9738 60.6186 25.0248C60.5121 25.1182 60.4155 25.2054 60.3287 25.2866C60.2429 25.3781 60.1633 25.4795 60.0897 25.5908C59.7974 25.7116 59.5183 25.8626 59.2524 26.0437C58.9969 26.2239 58.7409 26.3989 58.4844 26.5688C58.3571 26.549 58.2209 26.5457 58.0756 26.559C57.9511 26.5703 57.8271 26.5869 57.7036 26.6086C57.581 26.6407 57.4471 26.6634 57.3019 26.6766C57.2556 26.6285 57.1901 26.5979 57.1052 26.5847C57.0316 26.581 57.001 26.5315 57.0132 26.4362C56.6586 26.4477 56.3643 26.3751 56.1304 26.2186C55.8974 26.0725 55.6918 25.8821 55.5135 25.6473C55.3455 25.4116 55.2016 25.1528 55.0818 24.8708C54.9619 24.5889 54.8378 24.3178 54.7095 24.0575L54.7052 24.0109C54.7005 23.959 54.7184 23.926 54.759 23.9118C54.7995 23.8977 54.8174 23.8646 54.8127 23.8128C54.8108 23.792 54.8042 23.7769 54.7929 23.7675C54.7513 23.6562 54.7164 23.5601 54.6881 23.479C54.6598 23.3979 54.6404 23.3003 54.63 23.1862C54.6149 23.0202 54.6106 22.8584 54.6171 22.7009C54.6227 22.5331 54.618 22.3661 54.6028 22.2002C54.5877 22.0342 54.5537 21.8909 54.5008 21.7702C54.5376 21.7145 54.5678 21.6438 54.5913 21.5579C54.6035 21.4627 54.6106 21.3679 54.6125 21.2736C54.6143 21.1793 54.611 21.0854 54.6025 20.9921C54.6043 20.8978 54.6123 20.8134 54.6264 20.7389C54.5745 20.6285 54.5292 20.5333 54.4905 20.4531C54.4509 20.3626 54.4254 20.2551 54.4141 20.1306L54.4041 20.0217C54.4918 19.8359 54.5634 19.6463 54.619 19.453C54.6746 19.2596 54.7349 19.0606 54.7999 18.8559L54.7956 18.8093C54.7682 18.5084 54.7304 18.2085 54.6822 17.9096C54.634 17.6107 54.5962 17.3108 54.5687 17.0099L54.5418 16.7143C54.5323 16.6105 54.5285 16.5115 54.5304 16.4172C54.6096 16.3682 54.6666 16.3054 54.7015 16.229C54.7363 16.1526 54.7934 16.0899 54.8726 16.0408L55.3861 15.994L55.4652 15.8299C55.4916 15.7752 55.5072 15.7162 55.5119 15.653C55.6231 15.6115 55.7283 15.5601 55.8273 15.4987C55.9357 15.4261 56.0338 15.3544 56.1215 15.2836C56.2591 15.1874 56.3822 15.1029 56.4906 15.0303C56.6085 14.9463 56.7226 14.8784 56.8329 14.8265C56.9526 14.7633 57.0785 14.7099 57.2105 14.6665C57.3426 14.6231 57.4958 14.583 57.6702 14.5461C57.7532 14.5386 57.8037 14.5183 57.8216 14.4853C57.8499 14.4513 57.8881 14.4112 57.9361 14.365C58.0625 14.3744 58.1889 14.3838 58.3153 14.3932C58.4407 14.3922 58.5657 14.386 58.6901 14.3747C58.9391 14.352 59.1683 14.284 59.3776 14.1708C59.6888 14.1424 59.9943 14.1093 60.2942 14.0715C60.6045 14.0327 60.9152 13.9991 61.2264 13.9707C61.4961 13.9461 61.7668 13.9319 62.0384 13.9281C62.31 13.9242 62.5779 13.9364 62.8419 13.9646C62.9325 13.925 63.0348 13.8999 63.1489 13.8895C63.2734 13.8782 63.3993 13.8824 63.5266 13.9021C63.6633 13.9106 63.793 13.8988 63.9156 13.8667C63.9364 13.9798 63.9713 14.076 64.0204 14.1552C64.0789 14.2231 64.1128 14.3089 64.1223 14.4126ZM86.2425 13.6972C86.2199 13.7934 86.1638 13.8666 86.0742 13.9166C85.9941 13.9553 85.9083 13.9892 85.8168 14.0185C85.7253 14.0478 85.6405 14.0921 85.5622 14.1515C85.4934 14.1997 85.4533 14.2765 85.442 14.3822L85.4123 14.4006C85.3708 14.4043 85.3388 14.3968 85.3161 14.378C85.3029 14.3478 85.2902 14.3228 85.2779 14.303C85.2647 14.2728 85.2468 14.2483 85.2241 14.2295C85.2109 14.1993 85.1888 14.1856 85.1576 14.1884C85.0435 14.1989 84.9304 14.2196 84.8182 14.2508C84.7163 14.281 84.6135 14.3008 84.5098 14.3103C84.3542 14.3245 84.2122 14.3165 84.084 14.2864C84.0133 14.3138 83.976 14.3642 83.9723 14.4378C83.9789 14.5104 83.952 14.5599 83.8917 14.5863C83.8417 14.6118 83.7804 14.6279 83.7078 14.6345C83.6342 14.6307 83.5621 14.6426 83.4914 14.6699L83.0048 14.8398C82.8426 14.8965 82.6785 14.9323 82.5125 14.9475C82.4192 14.956 82.3513 14.957 82.3088 14.9504C82.1646 15.089 81.9967 15.1985 81.8053 15.2787C81.613 15.3486 81.4102 15.4194 81.1971 15.4911C80.9934 15.5515 80.7911 15.6275 80.5903 15.719C80.3998 15.8096 80.2339 15.9398 80.0925 16.1096C80.0076 16.0964 79.934 16.0927 79.8718 16.0984C79.7369 16.1107 79.6205 16.1527 79.5224 16.2244C79.4234 16.2857 79.3192 16.3475 79.2098 16.4098C79.1599 16.4353 79.1089 16.4504 79.0571 16.4551C79.0052 16.4598 78.9491 16.4754 78.8887 16.5018C78.8284 16.5283 78.7902 16.5683 78.7742 16.6221C78.7676 16.6645 78.7403 16.7089 78.6922 16.7551C78.7262 17.1286 78.7966 17.4987 78.9033 17.8655C79.009 18.222 79.0789 18.5869 79.113 18.9604L79.1187 19.0226C79.1555 19.1971 79.2277 19.3578 79.3353 19.5049C79.4419 19.6416 79.5023 19.7878 79.5165 19.9434C79.5212 19.9953 79.516 20.0533 79.5009 20.1174C79.7763 20.1551 79.9655 20.279 80.0683 20.4893C80.1806 20.6882 80.274 20.9098 80.3486 21.1541C80.4326 21.387 80.5308 21.6029 80.6431 21.8019C80.7657 21.9999 80.9746 22.1116 81.2698 22.137C81.3 22.2388 81.3255 22.3463 81.3463 22.4595C81.3662 22.5623 81.3808 22.6655 81.3903 22.7693C81.4035 22.9145 81.4007 23.056 81.3819 23.1936C81.364 23.3417 81.3136 23.4771 81.2307 23.5997C81.076 23.6243 80.9624 23.6399 80.8898 23.6465C80.8171 23.6531 80.7111 23.6942 80.5715 23.7696C80.3527 23.6641 80.1527 23.5359 79.9716 23.385C79.8018 23.2436 79.6362 23.0914 79.4749 22.9283C79.323 22.7539 79.1711 22.5794 79.0192 22.405C78.8664 22.2202 78.7042 22.0467 78.5325 21.8846C78.0053 22.0686 77.4589 22.2126 76.893 22.3165C76.3367 22.4091 75.7784 22.481 75.2182 22.532C75.1993 22.5547 75.1692 22.5679 75.1277 22.5717C75.0862 22.5755 75.0452 22.5844 75.0046 22.5986C74.9735 22.6014 74.9433 22.6147 74.9141 22.6382C74.8943 22.6505 74.8915 22.6769 74.9056 22.7175C74.8292 22.6826 74.7439 22.6642 74.6496 22.6624C74.5647 22.6492 74.4859 22.6459 74.4133 22.6525C74.3614 22.6573 74.3101 22.6672 74.2591 22.6823C74.2073 22.687 74.1568 22.7073 74.1078 22.7432C73.707 22.7065 73.3142 22.643 72.9293 22.5525C72.554 22.4508 72.1706 22.3759 71.7792 22.328C71.7716 22.245 71.7457 22.1898 71.7013 22.1625C71.6561 22.1248 71.6146 22.071 71.5768 22.0012C71.1165 21.7713 70.7184 21.4781 70.3826 21.1217C70.0571 20.7644 69.8953 20.3085 69.897 19.7539L69.7682 19.546C69.753 19.38 69.7785 19.2574 69.8445 19.1782C69.7963 19.1094 69.7171 19.0434 69.6067 18.9802C69.6869 18.8265 69.7561 18.6685 69.8145 18.5063C69.873 18.344 69.9097 18.1733 69.9247 17.9941C69.9304 17.9413 69.9313 17.8942 69.9275 17.8527C69.9237 17.8112 69.9299 17.7635 69.9459 17.7098C69.9609 17.6456 69.9859 17.5754 70.0208 17.499C70.0443 17.4132 70.0688 17.3377 70.0943 17.2726C70.2281 16.9048 70.3789 16.5511 70.5466 16.2115C70.7238 15.8606 70.9571 15.5517 71.2466 15.2847C71.2513 15.1065 71.2899 14.9565 71.3625 14.8348C71.4341 14.7028 71.5123 14.5858 71.5972 14.4839C71.6914 14.3707 71.7805 14.258 71.8644 14.1458C71.9587 14.0326 72.0252 13.901 72.0638 13.751C72.2552 13.5558 72.447 13.3657 72.6394 13.1808C72.8421 12.9949 73.0056 12.7813 73.13 12.5398C73.3111 12.4605 73.4803 12.3666 73.6378 12.2581C73.7943 12.1393 73.9225 11.9968 74.0224 11.8308C74.2695 11.7873 74.509 11.7184 74.741 11.624C74.9834 11.5287 75.2394 11.4688 75.5091 11.4442C75.6232 11.4338 75.7604 11.4474 75.9208 11.4851C76.0905 11.5114 76.2221 11.5779 76.3155 11.6844C76.3278 11.7042 76.3353 11.7297 76.3382 11.7608L76.3608 11.8372C76.3731 11.857 76.3854 11.8768 76.3976 11.8966C76.4193 11.9051 76.4504 11.9022 76.491 11.8881C76.5118 12.1163 76.5072 12.352 76.477 12.5954C76.446 12.8283 76.3272 13.017 76.1207 13.1613C75.9821 13.1321 75.835 13.1246 75.6794 13.1388C75.4719 13.1578 75.2838 13.2167 75.115 13.3158C74.9556 13.4036 74.7977 13.5069 74.6412 13.6258C74.4941 13.7333 74.3423 13.8465 74.1858 13.9654C74.0283 14.0739 73.8581 14.1574 73.6752 14.216C73.662 14.3008 73.6483 14.3805 73.6342 14.455C73.6295 14.5182 73.6413 14.5904 73.6697 14.6715C73.6178 14.6762 73.5758 14.6748 73.5437 14.6673C73.5211 14.6484 73.4839 14.6413 73.432 14.6461C73.3594 14.6527 73.3113 14.6989 73.2877 14.7848C73.2746 14.8696 73.26 14.939 73.2439 14.9927C73.0544 15.0937 72.8993 15.2281 72.7787 15.396C72.6674 15.5526 72.5628 15.7243 72.4648 15.911C72.3762 16.0865 72.2767 16.2577 72.1664 16.4246C72.0561 16.5916 71.9114 16.7251 71.7323 16.8251C71.6796 17.1646 71.6264 17.499 71.5727 17.8281C71.5294 18.1563 71.4706 18.4859 71.3962 18.817C71.4387 18.9386 71.4661 19.0669 71.4784 19.2017C71.4935 19.3677 71.4917 19.5196 71.4728 19.6573C71.5323 19.7355 71.5931 19.8293 71.6554 19.9387L71.8748 20.2796C71.9484 20.3984 72.021 20.5068 72.0927 20.6049C72.1748 20.702 72.2493 20.7736 72.3163 20.8198C72.438 20.8924 72.6214 20.9541 72.8666 21.005C73.1109 21.0454 73.3335 21.135 73.5344 21.2735C73.5552 21.2717 73.5811 21.2693 73.6122 21.2664C73.6424 21.2532 73.6679 21.2457 73.6886 21.2438C73.8131 21.2324 73.9508 21.2513 74.1017 21.3003C74.2526 21.3492 74.3488 21.3719 74.3903 21.3681C74.9712 21.3151 75.6007 21.2211 76.2787 21.086C76.9558 20.9405 77.5796 20.7843 78.1501 20.6172C78.1614 20.5116 78.1637 20.4224 78.1571 20.3498C78.1448 20.215 78.1123 20.0872 78.0594 19.9665C78.0056 19.8354 77.9278 19.7275 77.8259 19.6426C77.8117 19.487 77.7975 19.3314 77.7833 19.1758C77.7795 19.0192 77.7705 18.8632 77.7563 18.7076C77.7326 18.4482 77.6972 18.1743 77.6499 17.8857C77.6027 17.5971 77.5262 17.3321 77.4205 17.0908L77.3894 17.0936C77.2546 17.1059 77.1334 17.1536 77.0259 17.2366C76.9278 17.3083 76.8218 17.3493 76.7077 17.3597C76.6454 17.3654 76.5921 17.3546 76.5478 17.3273C76.4366 17.4838 76.2961 17.6065 76.1263 17.6952C75.9566 17.7839 75.776 17.8683 75.5846 17.9486C75.3923 18.0184 75.2004 18.0934 75.0089 18.1737C74.8279 18.2529 74.6648 18.3567 74.5196 18.485C74.4337 18.4615 74.3545 18.453 74.2819 18.4596C74.2093 18.4663 74.1372 18.4781 74.0655 18.4951C74.0042 18.5111 73.9325 18.5281 73.8505 18.5461C73.6156 18.3792 73.4854 18.1557 73.4598 17.8756C73.4466 17.7304 73.4546 17.5885 73.4838 17.4498C73.5224 17.2999 73.5775 17.1589 73.6491 17.0268C73.6982 16.991 73.759 16.9697 73.8316 16.9631C73.9033 16.9461 73.9749 16.9291 74.0466 16.9121C74.1173 16.8847 74.172 16.8536 74.2107 16.8187C74.2597 16.7828 74.2856 16.723 74.2884 16.639C74.3224 16.6673 74.3497 16.6805 74.3705 16.6786C74.3912 16.6767 74.4115 16.6696 74.4313 16.6574C74.4511 16.6451 74.4714 16.638 74.4921 16.6361C74.5129 16.6342 74.5294 16.6432 74.5417 16.663C74.5643 16.6818 74.5766 16.7016 74.5785 16.7224C75.0028 16.4431 75.4407 16.1992 75.8924 15.9906C76.3441 15.7821 76.8024 15.5886 77.2673 15.4102C77.7425 15.2309 78.2187 15.0619 78.6959 14.9034C79.1721 14.7344 79.6421 14.5556 80.1061 14.3668C80.173 14.2979 80.2466 14.2442 80.3267 14.2055C80.4069 14.1668 80.4752 14.1135 80.5318 14.0456C80.6082 14.0804 80.6983 14.0931 80.802 14.0837C80.9472 14.0704 81.1005 14.0303 81.2617 13.9633C81.4324 13.885 81.571 13.7991 81.6775 13.7057C81.72 13.7123 81.7568 13.7142 81.7879 13.7113L81.8968 13.7014C82.1043 13.6825 82.2933 13.6338 82.464 13.5555C82.6451 13.4762 82.819 13.3767 82.9859 13.2569L83.0637 13.2498C83.3853 13.2204 83.6984 13.1553 84.003 13.0543C84.3179 12.9523 84.6414 12.8862 84.9733 12.8559C85.3987 12.8171 85.782 12.892 86.1235 13.0805L86.1405 13.2672C86.1481 13.3502 86.1552 13.428 86.1618 13.5006C86.1779 13.5619 86.2048 13.6275 86.2425 13.6972ZM91.4775 11.9175L91.4832 11.9797C91.4124 12.0071 91.3809 12.0623 91.3884 12.1453C91.2791 12.2075 91.1635 12.2599 91.0419 12.3024C90.9193 12.3345 90.8033 12.3817 90.6939 12.444C90.5789 12.444 90.4591 12.4497 90.3346 12.461C90.2196 12.4611 90.105 12.4663 89.9909 12.4767C89.6797 12.5051 89.3694 12.5439 89.0601 12.593C88.7508 12.6421 88.4396 12.6705 88.1265 12.6782C87.9888 12.7744 87.8342 12.8565 87.6626 12.9244C87.5004 12.9811 87.3415 13.0165 87.1859 13.0307C87.0614 13.042 86.951 13.0364 86.8548 13.0138C86.6172 13.161 86.3518 13.2898 86.0585 13.4002C85.7756 13.5097 85.4876 13.6197 85.1943 13.7301C84.9001 13.8302 84.6177 13.9448 84.347 14.0741C84.0858 14.1921 83.8595 14.3487 83.6682 14.544C83.6607 14.6911 83.6583 14.8377 83.6612 14.9839C83.6631 15.1197 83.6703 15.255 83.6826 15.3899C83.6958 15.5351 83.7133 15.6695 83.735 15.7931C83.7671 15.9156 83.8148 16.0368 83.878 16.1566C83.9318 16.1726 83.9902 16.1829 84.0534 16.1876C84.127 16.1914 84.1897 16.1909 84.2416 16.1862C84.2934 16.1814 84.3448 16.1715 84.3958 16.1564C84.4457 16.1309 84.4787 16.0913 84.4947 16.0376C84.6485 16.0026 84.8036 15.9832 84.9601 15.9794C85.1157 15.9652 85.2713 15.951 85.4269 15.9368C85.5826 15.9226 85.7325 15.9037 85.8768 15.8801C86.0314 15.8556 86.1795 15.8159 86.3209 15.7612C86.4831 15.7045 86.6416 15.6639 86.7962 15.6394C86.9612 15.6138 87.1211 15.5888 87.2757 15.5642C87.4304 15.5397 87.5898 15.5094 87.7539 15.4736C87.917 15.4273 88.083 15.3546 88.2517 15.2556C88.3913 15.2951 88.5286 15.3088 88.6634 15.2965C88.8086 15.2832 88.9496 15.2808 89.0864 15.2893C89.1637 15.3345 89.226 15.3863 89.2732 15.4448C89.3307 15.5023 89.3633 15.5726 89.3708 15.6556C89.3841 15.8008 89.3455 15.9507 89.255 16.1054C89.1645 16.2601 89.0938 16.4026 89.0429 16.5327L88.8717 16.5483C88.6228 16.571 88.3823 16.6296 88.1503 16.724C87.9278 16.807 87.7015 16.9061 87.4714 17.0212C87.2508 17.125 87.0244 17.2241 86.7925 17.3185C86.5699 17.4016 86.3342 17.4545 86.0852 17.4772C86.0437 17.4809 86.0201 17.5092 86.0145 17.5621C86.0183 17.6036 86.0108 17.6356 85.9919 17.6583C85.9391 17.6526 85.8608 17.6545 85.7571 17.664C85.5185 17.6858 85.2926 17.7325 85.0795 17.8042C84.8664 17.876 84.6457 17.9223 84.4175 17.9431C84.3553 17.9488 84.293 17.9544 84.2308 17.9601C84.1676 17.9554 84.1044 17.9507 84.0412 17.946C83.9969 18.0337 83.9347 18.0969 83.8546 18.1356C83.7735 18.164 83.6994 18.2125 83.6325 18.2814C83.6099 18.3776 83.5996 18.4936 83.6015 18.6294C83.6138 18.7643 83.6214 18.9048 83.6242 19.051C83.6365 19.1858 83.638 19.3164 83.6286 19.4428C83.6192 19.5692 83.5867 19.6715 83.5311 19.7498C83.5462 19.8007 83.5896 19.8177 83.6613 19.8007C83.732 19.7733 83.7711 19.8011 83.7787 19.8841C83.7872 19.9775 83.7858 20.077 83.7745 20.1826C83.7633 20.2882 83.7623 20.3929 83.7718 20.4967C83.7898 20.6938 83.8304 20.9097 83.8937 21.1445C83.9663 21.368 84.0584 21.574 84.1697 21.7626C84.2914 21.9503 84.4414 22.1039 84.6197 22.2237C84.797 22.333 85.0102 22.3763 85.2591 22.3536C85.4251 22.3385 85.5779 22.2932 85.7174 22.2177C85.857 22.1422 85.9668 22.0276 86.0469 21.8738L86.1233 21.8512C86.1648 21.8474 86.2016 21.8492 86.2337 21.8568C86.2761 21.8634 86.3181 21.8648 86.3596 21.861C86.4218 21.8553 86.4963 21.8119 86.583 21.7308C86.6792 21.6383 86.7796 21.535 86.8842 21.4209C86.9993 21.3058 87.1148 21.1959 87.2307 21.0912C87.3457 20.9761 87.4584 20.8926 87.5687 20.8407C87.6281 20.6888 87.6823 20.5374 87.7313 20.3865C87.7907 20.2347 87.884 20.1111 88.0113 20.0158L87.9701 19.5646C88.0634 19.441 88.1629 19.3273 88.2685 19.2236C88.3845 19.1188 88.4669 18.991 88.5159 18.8401C88.5697 18.8561 88.6178 18.8674 88.6602 18.874C88.7131 18.8797 88.7654 18.8801 88.8173 18.8754C88.8691 18.8707 88.9205 18.8608 88.9715 18.8456C89.0327 18.8296 89.0884 18.8088 89.1384 18.7834C89.2318 18.8899 89.3058 19.0139 89.3606 19.1553C89.4247 19.2855 89.4988 19.4094 89.5828 19.5273C89.5064 19.7225 89.4179 19.9555 89.317 20.2262C89.2162 20.4969 89.105 20.7685 88.9834 21.0411C88.8619 21.3137 88.729 21.5769 88.5847 21.8306C88.45 22.073 88.3104 22.2636 88.1662 22.4022C88.1379 22.4362 88.0738 22.4787 87.9738 22.5296C87.8673 22.623 87.7707 22.7103 87.6839 22.7914C87.5981 22.8829 87.5185 22.9843 87.4449 23.0956C87.1526 23.2164 86.8735 23.3674 86.6076 23.5486C86.3521 23.7288 86.0961 23.9038 85.8396 24.0736C85.7123 24.0538 85.576 24.0506 85.4308 24.0638C85.3063 24.0752 85.1823 24.0917 85.0588 24.1135C84.9362 24.1456 84.8023 24.1682 84.657 24.1815C84.6108 24.1334 84.5453 24.1028 84.4604 24.0896C84.3868 24.0858 84.3562 24.0363 84.3684 23.9411C84.0138 23.9525 83.7195 23.88 83.4856 23.7235C83.2526 23.5774 83.047 23.387 82.8687 23.1522C82.7007 22.9165 82.5568 22.6576 82.437 22.3757C82.3171 22.0937 82.193 21.8226 82.0647 21.5624L82.0604 21.5157C82.0557 21.4638 82.0736 21.4308 82.1141 21.4167C82.1547 21.4025 82.1726 21.3695 82.1679 21.3176C82.166 21.2969 82.1594 21.2818 82.148 21.2724C82.1065 21.1611 82.0716 21.0649 82.0433 20.9838C82.015 20.9027 81.9956 20.8051 81.9852 20.691C81.9701 20.525 81.9658 20.3633 81.9723 20.2058C81.9779 20.0379 81.9732 19.871 81.958 19.705C81.9429 19.539 81.9089 19.3957 81.856 19.275C81.8928 19.2194 81.923 19.1486 81.9465 19.0628C81.9587 18.9675 81.9658 18.8727 81.9676 18.7784C81.9695 18.6841 81.9662 18.5903 81.9577 18.4969C81.9595 18.4026 81.9675 18.3182 81.9816 18.2437C81.9297 18.1334 81.8844 18.0381 81.8457 17.958C81.8061 17.8675 81.7806 17.76 81.7692 17.6355L81.7593 17.5266C81.847 17.3407 81.9186 17.1512 81.9742 16.9578C82.0297 16.7645 82.09 16.5655 82.1551 16.3608L82.1508 16.3141C82.1234 16.0133 82.0855 15.7134 82.0374 15.4144C81.9892 15.1155 81.9514 14.8156 81.9239 14.5148L81.897 14.2191C81.8875 14.1154 81.8837 14.0164 81.8855 13.9221C81.9647 13.873 82.0218 13.8103 82.0567 13.7339C82.0915 13.6575 82.1486 13.5947 82.2278 13.5457L82.7413 13.4988L82.8204 13.3347C82.8468 13.28 82.8624 13.2211 82.8671 13.1579C82.9783 13.1164 83.0835 13.0649 83.1825 13.0036C83.2909 12.9309 83.389 12.8592 83.4767 12.7885C83.6143 12.6922 83.7374 12.6078 83.8458 12.5352C83.9637 12.4512 84.0777 12.3832 84.1881 12.3313C84.3078 12.2681 84.4337 12.2148 84.5657 12.1714C84.6977 12.128 84.851 12.0878 85.0254 12.051C85.1084 12.0434 85.1589 12.0231 85.1768 11.9901C85.2051 11.9562 85.2433 11.9161 85.2913 11.8698C85.4177 11.8792 85.5441 11.8886 85.6705 11.898C85.7959 11.897 85.9208 11.8909 86.0453 11.8795C86.2943 11.8568 86.5234 11.7888 86.7328 11.6756C87.044 11.6472 87.3495 11.6141 87.6494 11.5763C87.9597 11.5375 88.2704 11.504 88.5816 11.4756C88.8513 11.451 89.122 11.4368 89.3936 11.4329C89.6652 11.429 89.933 11.4412 90.1971 11.4694C90.2876 11.4298 90.39 11.4048 90.5041 11.3944C90.6286 11.383 90.7545 11.3872 90.8818 11.407C91.0185 11.4154 91.1482 11.4036 91.2708 11.3715C91.2916 11.4847 91.3265 11.5809 91.3756 11.6601C91.434 11.7279 91.468 11.8138 91.4775 11.9175ZM104.118 10.6547C104.089 10.7933 104.033 10.9239 103.95 11.0466L103.715 11.3975C103.642 11.5088 103.579 11.6295 103.529 11.7597C103.487 11.8785 103.484 12.0148 103.519 12.1685C103.498 12.1704 103.472 12.1728 103.441 12.1756C103.409 12.1681 103.383 12.1652 103.362 12.1671C103.196 12.1823 103.07 12.2356 102.984 12.3271C102.908 12.4073 102.799 12.4799 102.659 12.545C102.632 12.4847 102.601 12.43 102.565 12.381C102.529 12.3216 102.478 12.2843 102.414 12.2693C102.17 12.3438 101.925 12.408 101.678 12.4619C101.431 12.5053 101.185 12.5592 100.94 12.6234C100.828 12.6545 100.717 12.696 100.606 12.748C100.495 12.7895 100.379 12.8315 100.257 12.874C100.197 12.9004 100.13 12.9169 100.057 12.9235C99.9839 12.9198 99.9113 12.9264 99.8396 12.9434C99.5916 12.9765 99.3238 13.0218 99.0362 13.0794C98.7476 13.1267 98.4953 13.2281 98.2794 13.3838C98.1738 13.3725 98.0635 13.3669 97.9484 13.3669C97.8333 13.367 97.7188 13.3722 97.6047 13.3826C97.3557 13.4053 97.0831 13.4563 96.787 13.5356C96.5004 13.6036 96.2491 13.7155 96.0332 13.8711C95.9794 13.8551 95.9209 13.8448 95.8577 13.8401C95.8049 13.8344 95.7422 13.8349 95.6696 13.8415C95.6488 13.8434 95.6338 13.85 95.6243 13.8613C95.614 13.8623 95.5984 13.8637 95.5776 13.8656C95.5758 13.9599 95.5947 14.0523 95.6343 14.1429C95.6834 14.2221 95.757 14.2833 95.855 14.3267C95.824 14.4446 95.8146 14.571 95.8269 14.7058C95.843 14.8822 95.8694 15.0576 95.9062 15.232C95.9535 15.4055 95.9851 15.5805 96.0012 15.7568C96.0192 15.9539 96.0074 16.1119 95.966 16.2307C96.0981 16.5325 96.1802 16.8597 96.2124 17.2124C96.2238 17.3369 96.2247 17.4623 96.2153 17.5887C96.2154 17.7037 96.2215 17.8287 96.2338 17.9636C96.2443 18.0777 96.2943 18.1672 96.3839 18.2323C96.4725 18.287 96.5221 18.3714 96.5325 18.4855C96.5363 18.527 96.5297 18.5694 96.5127 18.6128C96.6551 18.5684 96.7914 18.5142 96.9215 18.45C97.0507 18.3754 97.1879 18.3315 97.3331 18.3183C97.4161 18.3107 97.4953 18.3192 97.5708 18.3437C97.6566 18.3672 97.733 18.4021 97.8 18.4483C97.7943 18.5011 97.7892 18.5591 97.7845 18.6223C97.7902 18.6846 97.7958 18.7468 97.8015 18.809C97.8119 18.9231 97.8218 19.0321 97.8313 19.1358C97.8502 19.2282 97.87 19.331 97.8908 19.4442C97.8211 19.597 97.7344 19.7356 97.6307 19.8601C97.5373 19.9837 97.478 20.1356 97.4525 20.3157C97.2969 20.3299 97.1602 20.379 97.0424 20.463C96.9339 20.5356 96.8316 20.6182 96.7355 20.7106C96.6383 20.7927 96.5412 20.8748 96.4441 20.9568C96.3461 21.0285 96.2348 21.0701 96.1103 21.0814C95.9547 21.0956 95.8439 21.0848 95.7779 21.049C95.7109 21.0028 95.6595 20.9552 95.6236 20.9062C95.5878 20.8571 95.5524 20.8133 95.5175 20.7746C95.493 20.735 95.4397 20.7242 95.3576 20.7421C95.3246 20.6092 95.2717 20.4885 95.1991 20.38C95.1255 20.2612 95.0472 20.1481 94.9641 20.0406C94.8915 19.9322 94.8137 19.8242 94.7306 19.7167C94.657 19.5979 94.599 19.4777 94.5565 19.3561C94.4697 19.092 94.4182 18.8143 94.4021 18.5229C94.386 18.2315 94.3137 17.9557 94.1854 17.6954C94.1929 17.5483 94.1952 17.4016 94.1923 17.2555C94.1885 17.0989 94.18 16.948 94.1667 16.8028C94.1402 16.5123 94.1039 16.228 94.0576 15.9498C94.0207 15.6603 93.9833 15.3656 93.9455 15.0657C93.8644 14.979 93.8083 14.8795 93.7771 14.7673C93.7554 14.6437 93.7341 14.5254 93.7133 14.4122C93.6794 14.3839 93.6402 14.3561 93.5959 14.3288C93.5619 14.3005 93.5374 14.2609 93.5223 14.21C93.4374 14.1968 93.3742 14.1921 93.3327 14.1959C93.1875 14.2091 93.0663 14.2568 92.9692 14.3389C92.8815 14.4096 92.7962 14.4488 92.7132 14.4564C92.6302 14.4639 92.5515 14.4607 92.477 14.4465C92.4025 14.4324 92.3289 14.4287 92.2563 14.4353C92.194 14.441 92.1592 14.4598 92.1516 14.4919C92.1535 14.5126 92.1347 14.5353 92.0951 14.5598C92.0658 14.5834 91.9951 14.6108 91.8829 14.6419C91.7707 14.6731 91.6429 14.7057 91.4996 14.7397C91.3656 14.7623 91.2317 14.785 91.0978 14.8077C90.9743 14.8294 90.8918 14.8422 90.8503 14.8459C90.6843 14.8611 90.557 14.8413 90.4683 14.7866C90.3683 14.7225 90.2523 14.6547 90.1203 14.583C90.1353 14.5189 90.1419 14.4765 90.14 14.4557C90.1306 14.352 90.0919 14.2718 90.0239 14.2153C89.9551 14.1483 89.9183 14.0889 89.9136 14.0371C89.9031 13.923 89.9418 13.8305 90.0295 13.7598C90.1068 13.69 90.1445 13.5871 90.1425 13.4513C90.3717 13.3258 90.6084 13.2258 90.8526 13.1512C91.0968 13.0767 91.3472 13.012 91.6037 12.9572C91.8602 12.9024 92.111 12.8429 92.3562 12.7787C92.6118 12.7136 92.8598 12.623 93.1002 12.5069C93.1738 12.5106 93.2422 12.5149 93.3054 12.5196C93.378 12.5129 93.4506 12.5063 93.5232 12.4997C93.8344 12.4713 94.1376 12.4123 94.4328 12.3226C94.7373 12.2216 95.0504 12.1564 95.372 12.1271C95.455 12.1195 95.5385 12.1171 95.6224 12.1199C95.7063 12.1228 95.7907 12.1307 95.8756 12.1439C96.2849 12.0438 96.6885 11.939 97.0864 11.8295C97.4948 11.719 97.9144 11.618 98.3454 11.5264C98.5509 11.4867 98.7518 11.4527 98.948 11.4244C99.1535 11.3847 99.3586 11.3398 99.5633 11.2898C99.6349 11.2728 99.6854 11.2525 99.7146 11.2289C99.7533 11.194 99.7688 11.1351 99.7612 11.0521C99.8584 11.0851 99.964 11.0963 100.078 11.0859C100.254 11.0698 100.423 11.0231 100.583 10.9457C100.743 10.8684 100.912 10.8216 101.088 10.8055C101.13 10.8017 101.166 10.8036 101.198 10.8112C101.23 10.8083 101.261 10.8055 101.292 10.8026C101.364 10.796 101.398 10.7616 101.392 10.6993C101.396 10.6258 101.444 10.5744 101.535 10.5451C101.606 10.5177 101.708 10.4927 101.842 10.47C101.976 10.4474 102.115 10.4242 102.259 10.4006C102.413 10.3657 102.551 10.3321 102.674 10.3C102.806 10.2566 102.901 10.2061 102.958 10.1486L103.051 9.96748C103.239 9.96083 103.381 10.0315 103.479 10.1795C103.585 10.3163 103.652 10.4723 103.678 10.6477C103.723 10.6854 103.782 10.701 103.855 10.6944C103.937 10.6764 104.009 10.6646 104.071 10.6589L104.118 10.6547ZM115.337 9.63135C115.308 9.76999 115.252 9.90062 115.169 10.0232L114.934 10.3741C114.861 10.4854 114.799 10.6062 114.748 10.7363C114.706 10.8552 114.703 10.9915 114.738 11.1452C114.717 11.1471 114.691 11.1494 114.66 11.1523C114.628 11.1447 114.602 11.1419 114.581 11.1438C114.415 11.1589 114.289 11.2123 114.203 11.3038C114.127 11.384 114.018 11.4566 113.878 11.5217C113.851 11.4614 113.82 11.4067 113.784 11.3577C113.748 11.2982 113.697 11.261 113.633 11.2459C113.389 11.3205 113.144 11.3847 112.898 11.4386C112.65 11.482 112.404 11.5358 112.159 11.6C112.047 11.6312 111.936 11.6727 111.825 11.7246C111.714 11.7662 111.598 11.8082 111.476 11.8506C111.416 11.8771 111.349 11.8936 111.277 11.9002C111.203 11.8965 111.13 11.9031 111.059 11.9201C110.811 11.9532 110.543 11.9985 110.255 12.0561C109.967 12.1034 109.714 12.2048 109.498 12.3605C109.393 12.3492 109.283 12.3436 109.167 12.3436C109.052 12.3437 108.938 12.3489 108.824 12.3593C108.575 12.382 108.302 12.433 108.006 12.5123C107.719 12.5803 107.468 12.6921 107.252 12.8478C107.198 12.8318 107.14 12.8214 107.077 12.8167C107.024 12.8111 106.961 12.8116 106.889 12.8182C106.868 12.8201 106.853 12.8267 106.843 12.838C106.833 12.839 106.817 12.8404 106.797 12.8423C106.795 12.9366 106.814 13.029 106.853 13.1195C106.902 13.1987 106.976 13.26 107.074 13.3034C107.043 13.4213 107.034 13.5476 107.046 13.6825C107.062 13.8588 107.088 14.0342 107.125 14.2087C107.173 14.3822 107.204 14.5571 107.22 14.7335C107.238 14.9306 107.226 15.0886 107.185 15.2074C107.317 15.5092 107.399 15.8364 107.431 16.1891C107.443 16.3136 107.444 16.439 107.434 16.5654C107.434 16.6804 107.441 16.8054 107.453 16.9402C107.463 17.0543 107.513 17.1439 107.603 17.209C107.692 17.2636 107.741 17.348 107.752 17.4621C107.755 17.5036 107.749 17.5461 107.732 17.5895C107.874 17.5451 108.01 17.4908 108.141 17.4267C108.27 17.3521 108.407 17.3082 108.552 17.295C108.635 17.2874 108.714 17.2959 108.79 17.3204C108.876 17.3439 108.952 17.3788 109.019 17.425C109.013 17.4778 109.008 17.5358 109.004 17.599C109.009 17.6612 109.015 17.7235 109.021 17.7857C109.031 17.8998 109.041 18.0087 109.05 18.1125C109.069 18.2049 109.089 18.3077 109.11 18.4208C109.04 18.5736 108.953 18.7123 108.85 18.8368C108.756 18.9604 108.697 19.1123 108.672 19.2924C108.516 19.3066 108.379 19.3557 108.261 19.4396C108.153 19.5123 108.051 19.5948 107.955 19.6873C107.857 19.7694 107.76 19.8514 107.663 19.9335C107.565 20.0052 107.454 20.0467 107.329 20.0581C107.174 20.0723 107.063 20.0615 106.997 20.0257C106.93 19.9795 106.879 19.9319 106.843 19.8828C106.807 19.8338 106.771 19.79 106.737 19.7513C106.712 19.7117 106.659 19.7009 106.577 19.7188C106.544 19.5859 106.491 19.4652 106.418 19.3567C106.345 19.2379 106.266 19.1248 106.183 19.0173C106.111 18.9089 106.033 18.8009 105.95 18.6934C105.876 18.5746 105.818 18.4544 105.776 18.3327C105.689 18.0687 105.637 17.791 105.621 17.4996C105.605 17.2082 105.533 16.9323 105.404 16.6721C105.412 16.525 105.414 16.3783 105.411 16.2321C105.408 16.0756 105.399 15.9247 105.386 15.7795C105.359 15.489 105.323 15.2047 105.277 14.9265C105.24 14.637 105.202 14.3423 105.165 14.0424C105.083 13.9556 105.027 13.8562 104.996 13.7439C104.974 13.6204 104.953 13.502 104.932 13.3889C104.898 13.3606 104.859 13.3328 104.815 13.3055C104.781 13.2772 104.756 13.2376 104.741 13.1867C104.656 13.1735 104.593 13.1688 104.552 13.1726C104.407 13.1858 104.285 13.2335 104.188 13.3155C104.101 13.3863 104.015 13.4255 103.932 13.433C103.849 13.4406 103.771 13.4373 103.696 13.4232C103.622 13.4091 103.548 13.4053 103.475 13.412C103.413 13.4176 103.378 13.4365 103.371 13.4686C103.373 13.4893 103.354 13.512 103.314 13.5365C103.285 13.5601 103.214 13.5875 103.102 13.6186C102.99 13.6498 102.862 13.6823 102.719 13.7163C102.585 13.739 102.451 13.7617 102.317 13.7844C102.193 13.8061 102.111 13.8188 102.069 13.8226C101.903 13.8378 101.776 13.818 101.687 13.7633C101.587 13.6992 101.471 13.6314 101.339 13.5597C101.354 13.4956 101.361 13.4531 101.359 13.4324C101.35 13.3287 101.311 13.2485 101.243 13.192C101.174 13.125 101.137 13.0656 101.133 13.0137C101.122 12.8996 101.161 12.8072 101.249 12.7364C101.326 12.6666 101.364 12.5638 101.362 12.428C101.591 12.3025 101.827 12.2025 102.072 12.1279C102.316 12.0533 102.566 11.9887 102.823 11.9339C103.079 11.8791 103.33 11.8196 103.575 11.7554C103.831 11.6903 104.079 11.5996 104.319 11.4836C104.393 11.4873 104.461 11.4915 104.524 11.4962C104.597 11.4896 104.67 11.483 104.742 11.4764C105.053 11.448 105.357 11.389 105.652 11.2993C105.956 11.1983 106.269 11.1331 106.591 11.1038C106.674 11.0962 106.758 11.0938 106.841 11.0966C106.925 11.0994 107.01 11.1074 107.095 11.1206C107.504 11.0205 107.908 10.9157 108.305 10.8062C108.714 10.6957 109.133 10.5947 109.564 10.5031C109.77 10.4634 109.971 10.4294 110.167 10.401C110.373 10.3614 110.578 10.3165 110.782 10.2665C110.854 10.2495 110.904 10.2292 110.934 10.2056C110.972 10.1707 110.988 10.1117 110.98 10.0288C111.077 10.0617 111.183 10.073 111.297 10.0626C111.474 10.0465 111.642 9.99979 111.802 9.92241C111.962 9.84503 112.131 9.79829 112.307 9.78221C112.349 9.77842 112.385 9.7803 112.417 9.78783C112.449 9.78499 112.48 9.78216 112.511 9.77932C112.583 9.77269 112.617 9.73826 112.611 9.67602C112.615 9.60246 112.663 9.55105 112.754 9.52178C112.825 9.49441 112.927 9.46939 113.061 9.44672C113.195 9.42404 113.334 9.40089 113.478 9.37727C113.632 9.34233 113.77 9.30881 113.893 9.27671C114.025 9.23329 114.12 9.18281 114.177 9.12526L114.27 8.94416C114.458 8.9375 114.6 9.00819 114.698 9.15623C114.804 9.29294 114.871 9.449 114.897 9.6244C114.943 9.66211 115.001 9.67766 115.074 9.67103C115.156 9.65309 115.228 9.64128 115.291 9.6356L115.337 9.63135ZM117.238 17.397C117.194 17.4848 117.139 17.5682 117.073 17.6475C117.006 17.7163 116.944 17.7899 116.889 17.8682C116.819 17.906 116.737 17.9291 116.644 17.9376C116.561 17.9452 116.478 17.9527 116.395 17.9603C116.321 17.9566 116.249 17.9632 116.177 17.9802C116.115 17.9859 116.065 18.0113 116.027 18.0566C115.942 18.0434 115.877 18.0128 115.831 17.9647C115.783 17.9063 115.707 17.8766 115.603 17.8757C115.56 17.8691 115.519 17.8729 115.478 17.887C115.307 17.7249 115.144 17.5514 114.992 17.3666C114.849 17.1809 114.713 17.005 114.583 16.8391C114.537 16.4562 114.471 16.07 114.383 15.6806C114.364 15.5881 114.34 15.4962 114.311 15.4047C114.281 15.3133 114.258 15.2265 114.24 15.1445C114.23 15.0407 114.226 14.9417 114.228 14.8474C114.24 14.7418 114.247 14.647 114.249 14.563C114.263 14.2584 114.283 13.9585 114.309 13.6633C114.334 13.3681 114.354 13.0682 114.368 12.7636C114.385 12.4901 114.38 12.2081 114.353 11.9177C114.326 11.6168 114.254 11.341 114.137 11.0902L114.114 11.0138C114.127 10.9289 114.142 10.8596 114.158 10.8058C114.183 10.7408 114.198 10.6714 114.202 10.5979C114.212 10.4819 114.178 10.4012 114.101 10.356C114.125 10.2702 114.172 10.2136 114.242 10.1862C114.312 10.1485 114.348 10.0824 114.35 9.98813C114.357 9.94569 114.353 9.90419 114.339 9.86364C114.419 9.82495 114.499 9.79145 114.58 9.76313C114.671 9.7235 114.759 9.71027 114.844 9.72344C114.98 9.73189 115.104 9.76769 115.214 9.83084C115.324 9.88362 115.429 9.94725 115.53 10.0217C115.741 10.5045 115.857 11.0274 115.877 11.5904C115.896 12.1431 115.895 12.7028 115.873 13.2696C115.852 13.8364 115.855 14.3904 115.883 14.9318C115.911 15.4627 116.039 15.9479 116.267 16.3873L116.3 16.4C116.353 16.4057 116.393 16.3863 116.42 16.342C116.446 16.2873 116.486 16.2627 116.539 16.2684C116.582 16.2853 116.609 16.2934 116.619 16.2924C116.68 16.4961 116.765 16.687 116.876 16.8653C116.986 17.0435 117.107 17.2207 117.238 17.397ZM128.217 8.23689C128.208 8.36327 128.186 8.47503 128.153 8.57218C128.13 8.658 128.135 8.77259 128.169 8.91592C128.066 8.93576 127.987 8.97964 127.93 9.04756C127.883 9.10415 127.842 9.17065 127.807 9.24705C127.782 9.32251 127.753 9.40362 127.719 9.4904C127.695 9.56585 127.66 9.63706 127.613 9.70404C127.73 10.0699 127.812 10.4443 127.857 10.8272C127.902 11.21 127.963 11.5863 128.038 11.956C128.134 12.4284 128.255 12.8933 128.401 13.3507C128.557 13.7967 128.656 14.2583 128.7 14.7355C128.713 14.8807 128.72 15.0161 128.721 15.1415C128.733 15.266 128.744 15.3957 128.757 15.5305C128.764 15.6135 128.772 15.7017 128.781 15.795C128.799 15.8771 128.811 15.9596 128.819 16.0426C128.847 16.3434 128.832 16.648 128.777 16.9564C128.732 17.2639 128.702 17.5699 128.688 17.8746C128.574 18 128.476 18.1344 128.395 18.2778C128.325 18.4202 128.248 18.5528 128.165 18.6754C128.082 18.798 127.982 18.9065 127.865 19.0008C127.749 19.1056 127.599 19.182 127.415 19.2302C127.394 19.3367 127.339 19.4202 127.25 19.4806C127.172 19.54 127.106 19.6193 127.052 19.7183L127.021 19.7211C126.761 19.7448 126.535 19.7288 126.342 19.6733C126.148 19.6177 125.964 19.5508 125.79 19.4725C125.626 19.3934 125.456 19.3095 125.281 19.2209C125.105 19.1323 124.906 19.0668 124.682 19.0244C124.37 18.8123 124.082 18.5771 123.818 18.3188C123.553 18.0501 123.259 17.8154 122.938 17.6146C122.846 17.4137 122.732 17.2516 122.595 17.1281C122.469 17.0036 122.34 16.8584 122.21 16.6925C122.152 16.6246 122.104 16.5609 122.067 16.5015C122.041 16.4412 122.003 16.3714 121.954 16.2922C121.915 16.2121 121.858 16.1597 121.783 16.1352C121.718 16.1098 121.657 16.0787 121.602 16.0419C121.489 15.7279 121.343 15.4432 121.163 15.1876C120.983 14.9321 120.777 14.6893 120.547 14.4593C120.495 14.5791 120.455 14.7083 120.426 14.8469C120.406 14.9743 120.387 15.1068 120.368 15.2445C120.348 15.3718 120.318 15.5052 120.279 15.6448C120.249 15.7731 120.202 15.8924 120.139 16.0028L120.143 16.0494C120.148 16.1013 120.172 16.1305 120.214 16.1371C120.256 16.1437 120.28 16.1729 120.285 16.2248C120.286 16.2352 120.281 16.246 120.272 16.2574C120.273 16.2677 120.274 16.2781 120.275 16.2885C120.227 16.3347 120.19 16.3904 120.165 16.4554C120.149 16.5196 120.101 16.5606 120.019 16.5786C120.034 16.6295 120.044 16.6809 120.049 16.7327L120.061 16.8728C120.089 17.1736 120.08 17.4778 120.035 17.7852C120 18.0917 119.997 18.4006 120.025 18.7118L120.044 18.9141C120.05 18.9867 120.062 19.0537 120.078 19.115C120.104 19.1753 120.141 19.2347 120.188 19.2932C120.235 19.3516 120.261 19.4068 120.266 19.4586C120.273 19.5313 120.248 19.6015 120.191 19.6694C120.268 19.7147 120.357 19.7642 120.456 19.8179C120.555 19.8716 120.644 19.9315 120.723 19.9975C120.814 20.0729 120.889 20.1497 120.948 20.228C121.008 20.3166 121.043 20.4128 121.053 20.5165C121.069 20.6929 121.023 20.8226 120.916 20.9056C120.808 20.9886 120.673 21.0585 120.511 21.1151C120.359 21.1708 120.197 21.2222 120.023 21.2694C119.861 21.3261 119.727 21.4063 119.621 21.51L119.575 21.5143C119.45 21.5257 119.354 21.4979 119.285 21.4309C119.216 21.364 119.119 21.3362 118.995 21.3475C118.768 21.0439 118.6 20.6932 118.491 20.2952C118.382 19.9076 118.311 19.5323 118.278 19.1692C118.238 18.7232 118.238 18.2733 118.281 17.8197C118.313 17.367 118.366 16.9176 118.44 16.4715C118.504 16.0264 118.579 15.5855 118.665 15.1488C118.76 14.7008 118.845 14.2537 118.919 13.8076L118.93 13.7595C118.925 13.7077 118.907 13.6728 118.874 13.6549C118.851 13.636 118.838 13.6058 118.834 13.5644C118.832 13.5436 118.836 13.5328 118.847 13.5318C118.868 13.4252 118.89 13.3239 118.913 13.2276C118.946 13.1305 118.968 13.0239 118.978 12.9079C119.014 12.6118 119.028 12.3124 119.022 12.0096C119.024 11.6956 119.012 11.3881 118.985 11.0873C118.967 10.7855 118.95 10.4837 118.933 10.182C118.926 9.86886 118.934 9.55953 118.959 9.25396C119.034 9.16341 119.104 9.06813 119.168 8.96815C119.232 8.86816 119.318 8.77666 119.425 8.69363C119.634 8.68508 119.844 8.69728 120.056 8.73022C120.268 8.76317 120.473 8.82818 120.67 8.92526C120.835 9.35997 120.959 9.79846 121.041 10.2407C121.134 10.6821 121.257 11.1206 121.412 11.5562L121.416 11.6029C121.421 11.6548 121.449 11.6783 121.501 11.6736C121.563 11.6576 121.611 11.6689 121.646 11.7075C121.628 11.7405 121.615 11.7783 121.609 11.8207C121.613 11.8622 121.616 11.9037 121.62 11.9452L121.644 12.2097C121.673 12.2908 121.707 12.3766 121.746 12.4671C121.786 12.5577 121.859 12.6086 121.964 12.6199C122.046 12.9471 122.152 13.246 122.281 13.5166C122.411 13.7873 122.555 14.0461 122.713 14.2931C122.872 14.5402 123.04 14.7863 123.22 15.0314C123.398 15.2662 123.583 15.516 123.774 15.781C124.052 15.9544 124.296 16.1623 124.506 16.4046C124.715 16.6366 124.924 16.8633 125.133 17.0849C125.351 17.2951 125.587 17.4775 125.842 17.6321C126.107 17.7857 126.438 17.8653 126.836 17.8709C126.884 17.8247 126.916 17.7643 126.93 17.6898L126.988 17.4648C127.012 17.3894 127.038 17.3243 127.064 17.2696C127.1 17.2036 127.153 17.1517 127.222 17.1139C127.217 16.8216 127.21 16.524 127.204 16.2213C127.207 15.9176 127.249 15.6262 127.328 15.347C127.267 15.2584 127.231 15.1467 127.219 15.0118C127.209 14.9081 127.206 14.8091 127.207 14.7147C127.22 14.6195 127.222 14.5252 127.213 14.4318C127.195 14.2347 127.139 14.0777 127.045 13.9608C127.038 13.8882 127.036 13.8151 127.04 13.7415C127.043 13.6576 127.067 13.577 127.112 13.4996C127.01 13.2997 126.923 13.088 126.85 12.8645C126.788 12.6401 126.746 12.4086 126.724 12.17C126.712 12.0351 126.715 11.8937 126.733 11.7456C126.656 11.5957 126.598 11.4179 126.558 11.2123L126.438 10.58C126.397 10.3641 126.348 10.1646 126.289 9.9817C126.231 9.79876 126.139 9.65544 126.015 9.55174C126.068 9.4527 126.09 9.34094 126.078 9.21645C126.059 9.00898 126.01 8.81472 125.931 8.63367C125.852 8.45263 125.803 8.25837 125.784 8.05089C125.77 7.90566 125.788 7.75759 125.837 7.60669C126.066 7.59624 126.292 7.60183 126.514 7.62346C126.745 7.63376 126.969 7.62898 127.187 7.60911C127.257 7.68642 127.335 7.74723 127.423 7.79152C127.511 7.83582 127.604 7.87965 127.702 7.923C127.799 7.95598 127.891 7.99462 127.979 8.03892C128.077 8.08227 128.157 8.14826 128.217 8.23689ZM146.135 8.23432C146.112 8.33052 146.056 8.40363 145.966 8.45364C145.886 8.49233 145.8 8.5263 145.709 8.55557C145.617 8.58483 145.532 8.62918 145.454 8.68862C145.385 8.73674 145.345 8.81361 145.334 8.91924L145.304 8.93764C145.263 8.94142 145.231 8.93389 145.208 8.91503C145.195 8.88486 145.182 8.85987 145.17 8.84007C145.157 8.80989 145.139 8.78538 145.116 8.76652C145.103 8.73635 145.081 8.72268 145.05 8.72552C144.936 8.73593 144.822 8.75671 144.71 8.78787C144.608 8.81808 144.506 8.83791 144.402 8.84737C144.246 8.86157 144.104 8.85359 143.976 8.82345C143.905 8.85082 143.868 8.90129 143.864 8.97485C143.871 9.04747 143.844 9.09699 143.784 9.12341C143.734 9.14889 143.672 9.16494 143.6 9.17156C143.526 9.16781 143.454 9.17962 143.383 9.20699L142.897 9.3769C142.735 9.43353 142.571 9.46942 142.405 9.48455C142.311 9.49307 142.243 9.49403 142.201 9.48745C142.057 9.62612 141.889 9.73557 141.697 9.81579C141.505 9.88564 141.302 9.95643 141.089 10.0282C140.885 10.0886 140.683 10.1646 140.482 10.2561C140.292 10.3467 140.126 10.4769 139.984 10.6467C139.9 10.6335 139.826 10.6298 139.764 10.6354C139.629 10.6477 139.512 10.6897 139.414 10.7614C139.315 10.8228 139.211 10.8846 139.102 10.9469C139.052 10.9723 139.001 10.9874 138.949 10.9922C138.897 10.9969 138.841 11.0125 138.781 11.0389C138.72 11.0653 138.682 11.1054 138.666 11.1592C138.66 11.2016 138.632 11.246 138.584 11.2922C138.618 11.6656 138.689 12.0358 138.795 12.4026C138.901 12.759 138.971 13.124 139.005 13.4974L139.011 13.5597C139.047 13.7341 139.12 13.8949 139.227 14.042C139.334 14.1787 139.394 14.3249 139.408 14.4805C139.413 14.5324 139.408 14.5904 139.393 14.6545C139.668 14.6921 139.857 14.8161 139.96 15.0264C140.073 15.2253 140.166 15.4469 140.241 15.6911C140.325 15.9241 140.423 16.14 140.535 16.339C140.658 16.537 140.867 16.6487 141.162 16.674C141.192 16.7759 141.218 16.8834 141.238 16.9965C141.258 17.0993 141.273 17.2026 141.282 17.3063C141.296 17.4516 141.293 17.593 141.274 17.7307C141.256 17.8788 141.206 18.0141 141.123 18.1368C140.968 18.1613 140.854 18.1769 140.782 18.1835C140.709 18.1902 140.603 18.2312 140.463 18.3067C140.245 18.2012 140.045 18.073 139.864 17.9221C139.694 17.7807 139.528 17.6285 139.367 17.4653C139.215 17.2909 139.063 17.1165 138.911 16.9421C138.758 16.7573 138.596 16.5838 138.424 16.4216C137.897 16.6057 137.351 16.7497 136.785 16.8536C136.229 16.9462 135.67 17.018 135.11 17.0691C135.091 17.0918 135.061 17.105 135.02 17.1088C134.978 17.1125 134.937 17.1215 134.897 17.1357C134.865 17.1385 134.835 17.1517 134.806 17.1753C134.786 17.1876 134.783 17.214 134.798 17.2545C134.721 17.2197 134.636 17.2013 134.542 17.1994C134.457 17.1863 134.378 17.183 134.305 17.1896C134.253 17.1943 134.202 17.2043 134.151 17.2194C134.099 17.2241 134.049 17.2444 134 17.2802C133.599 17.2436 133.206 17.18 132.821 17.0896C132.446 16.9879 132.063 16.913 131.671 16.865C131.664 16.782 131.638 16.7269 131.593 16.6996C131.548 16.6618 131.507 16.6081 131.469 16.5383C131.009 16.3083 130.61 16.0152 130.275 15.6588C129.949 15.3015 129.787 14.8455 129.789 14.291L129.66 14.0831C129.645 13.9171 129.67 13.7945 129.736 13.7153C129.688 13.6464 129.609 13.5804 129.499 13.5173C129.579 13.3635 129.648 13.2056 129.707 13.0433C129.765 12.8811 129.802 12.7104 129.817 12.5312C129.822 12.4784 129.823 12.4312 129.82 12.3897C129.816 12.3482 129.822 12.3006 129.838 12.2469C129.853 12.1827 129.878 12.1125 129.913 12.0361C129.936 11.9502 129.961 11.8748 129.986 11.8097C130.12 11.4418 130.271 11.0881 130.439 10.7486C130.616 10.3977 130.849 10.0888 131.139 9.8218C131.143 9.64356 131.182 9.4936 131.254 9.37192C131.326 9.23986 131.404 9.1229 131.489 9.02102C131.583 8.90782 131.673 8.7951 131.756 8.68284C131.851 8.56965 131.917 8.43807 131.956 8.28811C132.147 8.09283 132.339 7.90274 132.531 7.71784C132.734 7.53199 132.898 7.31833 133.022 7.07687C133.203 6.99759 133.372 6.90371 133.53 6.79521C133.686 6.67633 133.815 6.53389 133.914 6.36787C134.162 6.32442 134.401 6.2555 134.633 6.16112C134.875 6.0658 135.131 6.00584 135.401 5.98123C135.515 5.97083 135.652 5.98446 135.813 6.02213C135.983 6.04849 136.114 6.11494 136.208 6.22148C136.22 6.24128 136.227 6.26674 136.23 6.29786L136.253 6.37424C136.265 6.39404 136.277 6.41384 136.29 6.43365C136.311 6.44213 136.342 6.43929 136.383 6.42513C136.404 6.65335 136.399 6.88912 136.369 7.13244C136.338 7.36539 136.219 7.55405 136.013 7.6984C135.874 7.66921 135.727 7.66171 135.571 7.6759C135.364 7.69482 135.176 7.75382 135.007 7.8529C134.848 7.94065 134.69 8.04397 134.533 8.16284C134.386 8.2704 134.234 8.38361 134.078 8.50249C133.92 8.61099 133.75 8.6945 133.567 8.75303C133.554 8.83791 133.54 8.91761 133.526 8.99211C133.522 9.0553 133.533 9.12744 133.562 9.20854C133.51 9.21327 133.468 9.21187 133.436 9.20433C133.413 9.18548 133.376 9.17842 133.324 9.18315C133.251 9.18977 133.203 9.236 133.18 9.32182C133.167 9.40671 133.152 9.47603 133.136 9.52979C132.946 9.63075 132.791 9.76519 132.671 9.93309C132.559 10.0897 132.455 10.2614 132.357 10.4481C132.268 10.6236 132.169 10.7947 132.058 10.9617C131.948 11.1287 131.803 11.2622 131.624 11.3622C131.572 11.7017 131.518 12.036 131.465 12.3652C131.421 12.6934 131.363 13.023 131.288 13.3541C131.331 13.4757 131.358 13.604 131.37 13.7388C131.385 13.9048 131.384 14.0566 131.365 14.1943C131.424 14.2726 131.485 14.3664 131.547 14.4758L131.767 14.8166C131.84 14.9354 131.913 15.0439 131.985 15.1419C132.067 15.239 132.141 15.3107 132.208 15.3569C132.33 15.4295 132.513 15.4912 132.759 15.542C133.003 15.5825 133.226 15.672 133.426 15.8106C133.447 15.8087 133.473 15.8064 133.504 15.8035C133.534 15.7903 133.56 15.7828 133.581 15.7809C133.705 15.7695 133.843 15.7883 133.994 15.8373C134.145 15.8863 134.241 15.9089 134.282 15.9051C134.863 15.8522 135.493 15.7581 136.171 15.6231C136.848 15.4776 137.472 15.3214 138.042 15.1543C138.053 15.0486 138.056 14.9595 138.049 14.8869C138.037 14.752 138.004 14.6243 137.951 14.5036C137.898 14.3725 137.82 14.2645 137.718 14.1797C137.704 14.0241 137.69 13.8685 137.675 13.7129C137.671 13.5563 137.662 13.4002 137.648 13.2446C137.625 12.9853 137.589 12.7113 137.542 12.4228C137.495 12.1342 137.418 11.8692 137.313 11.6278L137.281 11.6307C137.147 11.643 137.025 11.6906 136.918 11.7737C136.82 11.8454 136.714 11.8864 136.6 11.8968C136.537 11.9025 136.484 11.8917 136.44 11.8643C136.329 12.0209 136.188 12.1436 136.018 12.2323C135.849 12.321 135.668 12.4054 135.477 12.4856C135.284 12.5555 135.092 12.6305 134.901 12.7107C134.72 12.79 134.557 12.8938 134.412 13.0221C134.326 12.9986 134.247 12.9901 134.174 12.9967C134.101 13.0033 134.029 13.0151 133.957 13.0321C133.896 13.0482 133.825 13.0652 133.742 13.0831C133.508 12.9163 133.377 12.6928 133.352 12.4127C133.339 12.2675 133.347 12.1256 133.376 11.9869C133.414 11.837 133.47 11.6959 133.541 11.5639C133.59 11.528 133.651 11.5068 133.724 11.5002C133.795 11.4832 133.867 11.4662 133.939 11.4492C134.009 11.4218 134.064 11.3907 134.103 11.3558C134.152 11.3199 134.178 11.26 134.18 11.1761C134.214 11.2044 134.242 11.2176 134.262 11.2157C134.283 11.2138 134.304 11.2067 134.323 11.1944C134.343 11.1822 134.363 11.1751 134.384 11.1732C134.405 11.1713 134.421 11.1803 134.434 11.2001C134.456 11.2189 134.469 11.2387 134.47 11.2595C134.895 10.9802 135.333 10.7363 135.784 10.5277C136.236 10.3192 136.694 10.1257 137.159 9.9473C137.635 9.76797 138.111 9.59902 138.588 9.44044C139.064 9.27148 139.534 9.09263 139.998 8.90387C140.065 8.83501 140.139 8.78123 140.219 8.74254C140.299 8.70385 140.367 8.65054 140.424 8.58262C140.5 8.61749 140.59 8.6302 140.694 8.62074C140.839 8.60749 140.992 8.56736 141.154 8.50036C141.324 8.42203 141.463 8.33617 141.57 8.24277C141.612 8.24936 141.649 8.25123 141.68 8.24839L141.789 8.23846C141.996 8.21954 142.185 8.17091 142.356 8.09258C142.537 8.01331 142.711 7.91376 142.878 7.79394L142.956 7.78684C143.277 7.75751 143.59 7.69234 143.895 7.59134C144.21 7.4894 144.533 7.42328 144.865 7.393C145.291 7.35421 145.674 7.42907 146.015 7.61758L146.033 7.80431C146.04 7.8873 146.047 7.9651 146.054 8.03771C146.07 8.09901 146.097 8.16454 146.135 8.23432ZM144.307 15.0378C144.322 15.1934 144.304 15.3466 144.255 15.4976C144.216 15.6371 144.166 15.7777 144.105 15.9192L143.924 16.3436C143.864 16.4851 143.82 16.6303 143.792 16.7793L143.728 16.7695C143.583 16.7827 143.445 16.8162 143.314 16.87C143.182 16.9134 143.05 16.962 142.919 17.0158C142.788 17.0696 142.652 17.1239 142.51 17.1786C142.379 17.2324 142.241 17.266 142.096 17.2792C142.062 17.1359 142.008 17.01 141.936 16.9016C141.853 16.7941 141.723 16.7484 141.547 16.7645C141.508 16.6843 141.484 16.5975 141.476 16.5042C141.457 16.4118 141.444 16.3241 141.436 16.2411C141.428 16.1477 141.414 16.06 141.396 15.978C141.367 15.8865 141.328 15.8012 141.279 15.722C141.452 15.5597 141.592 15.3743 141.699 15.1659C141.804 14.9471 141.927 14.7476 142.068 14.5674C142.195 14.5872 142.326 14.5909 142.461 14.5786C142.617 14.5644 142.771 14.5346 142.924 14.4893C143.076 14.4336 143.229 14.3987 143.385 14.3845C143.551 14.3694 143.71 14.3967 143.863 14.4664C143.899 14.5154 143.925 14.5706 143.941 14.6319C143.957 14.6932 143.978 14.754 144.005 14.8144C144.041 14.8634 144.076 14.9072 144.111 14.9459C144.156 14.9836 144.22 14.9987 144.303 14.9911L144.307 15.0378ZM148.182 14.6844C148.196 14.84 148.179 14.9932 148.13 15.1441C148.09 15.2837 148.04 15.4243 147.98 15.5657L147.799 15.9902C147.739 16.1317 147.694 16.2769 147.666 16.4259L147.603 16.416C147.457 16.4293 147.319 16.4628 147.188 16.5166C147.056 16.56 146.925 16.6086 146.793 16.6624C146.662 16.7162 146.526 16.7705 146.385 16.8252C146.254 16.879 146.115 16.9126 145.97 16.9258C145.936 16.7825 145.883 16.6566 145.81 16.5481C145.727 16.4407 145.598 16.395 145.421 16.411C145.382 16.3309 145.359 16.2441 145.35 16.1508C145.331 16.0584 145.318 15.9707 145.311 15.8877C145.302 15.7943 145.289 15.7066 145.271 15.6246C145.242 15.5331 145.203 15.4478 145.153 15.3686C145.327 15.2063 145.467 15.0209 145.573 14.8125C145.679 14.5937 145.802 14.3942 145.943 14.214C146.07 14.2337 146.201 14.2375 146.336 14.2252C146.491 14.211 146.646 14.1812 146.798 14.1359C146.95 14.0802 147.104 14.0453 147.259 14.0311C147.425 14.016 147.585 14.0433 147.738 14.113C147.773 14.162 147.799 14.2172 147.815 14.2785C147.832 14.3398 147.853 14.4006 147.879 14.461C147.915 14.51 147.95 14.5538 147.985 14.5925C148.031 14.6302 148.095 14.6453 148.178 14.6377L148.182 14.6844ZM152.057 14.331C152.071 14.4866 152.053 14.6398 152.004 14.7907C151.965 14.9303 151.915 15.0709 151.855 15.2123L151.674 15.6368C151.613 15.7783 151.569 15.9235 151.541 16.0725L151.477 16.0626C151.332 16.0759 151.194 16.1094 151.063 16.1632C150.931 16.2066 150.799 16.2552 150.668 16.309C150.537 16.3628 150.401 16.4171 150.259 16.4718C150.128 16.5256 149.99 16.5591 149.845 16.5724C149.811 16.4291 149.757 16.3032 149.685 16.1947C149.602 16.0873 149.472 16.0416 149.296 16.0576C149.257 15.9775 149.233 15.8907 149.225 15.7974C149.206 15.705 149.193 15.6172 149.185 15.5343C149.177 15.4409 149.163 15.3532 149.146 15.2712C149.116 15.1797 149.077 15.0943 149.028 15.0151C149.202 14.8529 149.342 14.6675 149.448 14.4591C149.554 14.2402 149.677 14.0407 149.817 13.8606C149.944 13.8803 150.075 13.8841 150.21 13.8718C150.366 13.8576 150.52 13.8278 150.673 13.7825C150.825 13.7268 150.978 13.6919 151.134 13.6777C151.3 13.6626 151.459 13.6899 151.612 13.7596C151.648 13.8086 151.674 13.8638 151.69 13.9251C151.706 13.9864 151.727 14.0472 151.754 14.1075C151.79 14.1566 151.825 14.2004 151.86 14.2391C151.905 14.2768 151.969 14.2919 152.052 14.2843L152.057 14.331Z" fill="#9C7979"/>
</svg>
