<svg width="31" height="32" viewBox="0 0 31 32" fill="none" xmlns="http://www.w3.org/2000/svg">
<path opacity="0.12" d="M27.1901 28.018L16.4448 29.5108L4.37807 27.9437L14.8493 27.3089L27.1901 28.018Z" fill="black"/>
<path d="M13.0963 11.6878C14.7043 14.984 16.8291 17.9937 18.6849 21.1499C18.7735 21.5348 18.7762 21.9349 18.8252 22.3241C18.8674 22.6638 19.028 23.7379 18.989 23.9831C18.916 24.4482 18.0353 24.9643 17.6276 25.1135C16.7257 25.4458 15.5767 25.6808 14.6304 25.8934C13.8306 25.1274 13.0389 24.3121 12.1914 23.5979C11.9708 23.4107 11.6232 23.0055 11.3549 23.0438C11.2998 23.0517 11.2083 22.9783 11.1629 23.0845C10.6229 24.4943 10.1287 25.9398 9.85706 27.4271C9.52159 27.6828 9.00031 28.105 8.87659 28.515C8.41957 28.4524 7.95444 28.4094 7.4986 28.3377C7.607 27.8436 7.79104 26.8923 8.42289 26.9605L8.20616 26.4676C8.41958 26.4782 8.63468 26.5339 8.84923 26.5503L8.9406 26.5079L8.98837 26.1947C9.07455 25.8733 8.96694 25.5774 9.00289 25.356C9.30916 23.4549 9.84281 21.1944 9.88083 19.2587C9.89863 18.3365 9.26445 17.067 9.22814 16.1154C9.22413 16.0159 9.20325 15.946 9.28992 15.8675C10.5355 14.5335 11.6319 13.0384 12.9024 11.7283C12.9735 11.6552 13.0898 11.6945 13.0963 11.6878ZM13.5823 20.2486L13.4513 18.364C13.3262 18.3199 13.2992 18.3557 13.213 18.4305C13.1035 18.5266 12.136 20.2829 12.025 20.5357C11.7635 21.1315 11.5187 21.8583 11.4718 22.4985C11.7006 22.2441 11.9467 22.0012 12.1753 21.7486C12.8195 21.9678 13.9903 22.5649 14.6393 22.5288C15.1511 22.4994 16.1052 21.6603 16.6795 21.581C16.6841 21.4434 16.5619 21.4202 16.4691 21.3728C16.1152 21.1909 13.8021 20.2246 13.5821 20.2505L13.5823 20.2486Z" fill="#983223"/>
<mask id="mask0_7405_1437" style="mask-type:alpha" maskUnits="userSpaceOnUse" x="8" y="22" width="14" height="8">
<path d="M8.69505 28.6664C8.81877 28.2564 9.52258 27.682 9.85805 27.4264C10.7714 26.7295 11.7076 26.4503 12.815 26.2192C13.4138 26.0946 13.9988 26.0335 14.6314 25.8926C15.5795 25.6803 16.7267 25.445 17.6286 25.1128C18.0363 24.9636 18.917 24.4474 18.9899 23.9824C19.029 23.7372 18.8686 22.6613 18.8261 22.3233C21.2601 22.3358 21.9186 24.998 20.899 26.884C20.0019 28.5429 17.6604 29.6668 15.8131 29.5804C13.6111 29.4782 10.9258 28.9664 8.69529 28.6645L8.69505 28.6664Z" fill="#591D14"/>
</mask>
<g mask="url(#mask0_7405_1437)">
<path d="M8.69505 28.6664C8.81877 28.2564 9.52258 27.682 9.85805 27.4264C10.7714 26.7295 11.7076 26.4503 12.815 26.2192C13.4138 26.0946 13.9988 26.0335 14.6314 25.8926C15.5795 25.6803 16.7267 25.445 17.6286 25.1128C18.0363 24.9636 18.917 24.4474 18.9899 23.9824C19.029 23.7372 18.8686 22.6613 18.8261 22.3233C21.2601 22.3358 21.9186 24.998 20.899 26.884C20.0019 28.5429 17.6604 29.6668 15.8131 29.5804C13.6111 29.4782 10.9258 28.9664 8.69529 28.6645L8.69505 28.6664Z" fill="#591D14"/>
<path d="M21.7949 24.2124C21.7949 24.2124 20.831 27.6823 17.9009 28.4148C14.9707 29.1474 13.3129 28.7618 11.8093 28.6076C10.3056 28.4534 7.56827 28.7618 7.56827 28.7618L19.019 34.7763L21.7949 24.2124Z" fill="#40150F"/>
</g>
<path d="M11.3556 23.0433L12.8147 26.2194C11.7073 26.4505 10.7711 26.7297 9.85777 27.4265C10.1295 25.9393 10.622 24.4916 11.1636 23.0839C11.2109 22.978 11.3005 23.0511 11.3556 23.0433Z" fill="#BEA284"/>
<path d="M13.5825 20.248C13.8025 20.2222 16.1156 21.1885 16.4694 21.3703C16.5623 21.4178 16.6842 21.4428 16.6799 21.5786C16.1056 21.6578 15.1515 22.497 14.6397 22.5264C13.9905 22.5642 12.8199 21.9654 12.1757 21.7461C12.6348 21.2411 13.0337 20.6668 13.5827 20.2462L13.5825 20.248Z" fill="#C47C4E"/>
<path d="M14.6297 25.8927C13.9971 26.0335 13.4121 26.0946 12.8133 26.2193L11.3542 23.0431C11.6225 23.0048 11.97 23.41 12.1906 23.5972C13.0382 24.3114 13.828 25.1265 14.6297 25.8927Z" fill="#B7443F"/>
<path d="M12.1753 21.7486C11.9469 21.9994 11.7007 22.2441 11.4718 22.4986C11.5185 21.8602 11.7633 21.1334 12.0251 20.5358C12.136 20.283 13.1035 18.5266 13.213 18.4305C13.2992 18.3557 13.3244 18.3197 13.4513 18.3641L13.5824 20.2487C13.0333 20.6692 12.6344 21.2436 12.1753 21.7486Z" fill="#B7443F"/>
<path d="M3.63338 10.4695C5.39172 11.0731 7.17562 10.8973 8.9832 10.973L9.28927 15.8666C9.20259 15.9451 9.22348 16.0151 9.22748 16.1146C9.2638 17.0662 9.89798 18.3357 9.88017 19.2579C9.84216 21.1936 9.30667 23.4538 9.00224 25.3552C8.91397 24.7929 8.35261 23.6542 8.37258 23.1506C8.38992 22.74 8.79748 22.3741 8.77125 21.9393C8.75956 21.7398 8.5138 21.2693 8.41949 21.0442C8.36367 20.9119 8.42792 20.7464 8.19347 20.7686C8.23543 20.6021 8.46016 20.4088 8.27652 20.1666C7.64518 19.3831 7.04862 18.5761 6.43386 17.7798C6.34741 17.6678 6.18922 17.6344 6.17321 17.6136C6.00031 17.3897 4.91645 15.8699 4.92043 15.7229L6.45929 12.4581L5.97169 11.0655C5.80191 10.9335 4.24482 11.2916 3.85804 11.2493C3.51351 11.2124 3.37518 11.0246 3.11862 10.8702L3.63705 10.47L3.63338 10.4695Z" fill="#BEA284"/>
<path d="M11.1537 8.63562C12.0632 8.99919 12.9005 9.50289 13.7915 9.9089C13.9803 9.99483 14.1082 10.1476 14.3191 10.1636C14.3268 10.1907 14.4199 10.2363 14.3953 10.3116C14.3607 10.5219 13.7234 10.961 13.5414 11.1412C13.3703 11.3097 13.2224 11.5596 13.0937 11.6887C13.0872 11.6954 12.9711 11.6543 12.8998 11.7292C11.6293 13.0393 10.5329 14.5344 9.28732 15.8683L8.98125 10.9747C7.1716 10.9006 5.38769 11.0763 3.63143 10.4712C3.66866 10.3415 3.79595 10.1506 3.7824 10.0237C3.85542 10.0368 3.93427 9.96106 3.97795 9.95548C6.38835 9.61378 8.75791 9.06698 11.1516 8.63722L11.1537 8.63562Z" fill="#F7E6CA"/>
<path d="M8.19197 20.769C8.13835 20.9825 8.08176 21.19 8.01736 21.4002L5.87809 22.0588C5.89685 21.8259 5.85974 21.4756 5.87488 21.358L6.08764 19.7044C6.0919 19.6713 6.01724 19.5403 6.02709 19.4202C6.07684 18.8158 6.25383 18.2241 6.16987 17.6138C6.18588 17.6345 6.34408 17.6679 6.43053 17.7799C7.04552 18.5744 7.64368 19.3835 8.27318 20.1668C8.45865 20.4092 8.23209 20.6023 8.19013 20.7687L8.19197 20.769Z" fill="#B7443F"/>
<path d="M6.6111 25.7953C6.29031 25.6755 5.79833 25.6234 5.64785 25.2978C5.80131 24.3519 5.7938 23.0603 5.87784 22.0588L8.01711 21.4002C7.56834 22.8703 7.04933 24.3201 6.6111 25.7953Z" fill="#983223"/>
<path d="M5.64776 25.2973C5.79823 25.623 6.29022 25.6751 6.61101 25.7948C6.3805 26.5702 6.05564 27.324 6.02808 28.1479L3.54768 27.8287C3.64115 27.5233 4.01672 26.8544 4.25685 26.6574C4.55967 26.4087 5.16896 26.4927 5.27945 26.3743C5.31843 26.3327 5.62966 25.4089 5.64776 25.2973Z" fill="#B7443F"/>
<path d="M8.20611 26.4668L8.42284 26.9598C7.79098 26.8916 7.60718 27.841 7.49854 28.3369C7.19289 28.2883 6.87002 28.3009 6.58165 28.176C6.39882 28.0292 6.89774 27.1128 7.04152 26.939C7.40869 26.495 7.67176 26.4392 8.20795 26.4671L8.20611 26.4668Z" fill="#B7443F"/>
<path d="M8.85006 26.5496C8.78653 26.3901 8.98503 26.212 8.98923 26.1939L8.94145 26.5072L8.85006 26.5496Z" fill="#C1A17F"/>
<path d="M6.19934 2.86182C6.42589 3.43822 6.69059 4.00833 6.81752 4.6186C6.99342 4.77571 8.22353 3.91046 8.42508 3.70853L8.51695 3.72035L9.1482 3.89496C9.16794 4.40927 8.72158 5.84603 8.98426 6.21416L13.7909 9.90881C12.8999 9.5028 12.0626 8.9991 11.1531 8.63553C10.7251 8.30403 9.05151 6.67854 8.65507 6.63874C8.25863 6.59894 7.65622 7.53561 7.51387 7.88711C7.45277 7.88298 7.39148 7.86576 7.33014 7.86347C7.01081 7.84853 6.35942 7.84503 6.10041 7.9854C5.75368 7.92211 5.3879 7.91987 5.04211 7.84923C4.90733 7.82255 4.76648 7.88661 4.83178 7.68395C5.40286 7.01967 6.42888 6.36163 6.92558 5.68031C7.2297 5.26184 7.02016 5.13403 6.84725 4.72142C6.50868 4.94307 6.15133 5.33975 5.76668 5.46956C5.53042 5.54936 5.60571 5.44325 5.51065 5.29654C5.57459 4.4512 5.3289 3.00757 5.26948 2.09033L6.19727 2.86342L6.19934 2.86182Z" fill="#983223"/>
<path d="M10.4349 4.06031L9.534 4.87827L12.3324 6.73253C12.8255 7.7915 13.9992 9.0781 14.319 10.1633C14.1081 10.1474 13.9802 9.9946 13.7914 9.90867L8.98484 6.21402C8.72193 5.84773 9.16852 4.40913 9.14878 3.89483L8.51753 3.72021L10.4349 4.06031Z" fill="#C47C4E"/>
<path d="M12.8101 5.20613C12.6982 5.6979 12.4415 6.22706 12.3335 6.7324L9.53515 4.87813L10.4361 4.06018C11.4398 3.3283 12.4402 2.57918 13.4312 1.83071C13.6028 1.94806 13.4523 2.16028 13.4182 2.29412C13.1838 3.25947 13.0165 4.29882 12.8101 5.20613Z" fill="#983223"/>
<path d="M5.51258 5.29465C5.60579 5.44113 5.53027 5.54908 5.76861 5.46768C6.15326 5.33787 6.51061 4.94119 6.84918 4.71954C7.02025 5.13191 7.23163 5.25996 6.92751 5.67843C6.43241 6.36182 5.40639 7.01987 4.8337 7.68207C4.7684 7.88472 4.90742 7.82043 5.04404 7.84735C5.38982 7.91799 5.75561 7.92023 6.10234 7.98352C5.61473 8.24577 5.0751 9.04297 4.5309 9.32408L3.98131 9.9519C3.93764 9.95749 3.85878 10.0333 3.78576 10.0201C3.76489 9.81946 3.07673 9.43394 2.83433 9.43077C3.06427 8.87762 4.3066 8.38189 4.5613 7.97014C4.83981 7.5185 4.57557 6.75607 4.73725 6.26885C4.87128 5.86585 5.46598 5.91809 5.51465 5.29305L5.51258 5.29465Z" fill="#C47C4E"/>
<path d="M8.42562 3.70821C8.2259 3.91038 6.99395 4.77539 6.81805 4.61828C6.69112 4.008 6.42665 3.43606 6.19988 2.8615C5.88726 2.06857 5.64445 1.22673 5.19744 0.491215C5.31642 0.248775 5.67086 0.658594 5.76886 0.753385C6.70807 1.6699 7.53759 2.74225 8.42562 3.70821Z" fill="#40150F"/>
<path d="M2.83385 9.43281C3.07625 9.43599 3.76441 9.8215 3.78528 10.0222C3.79884 10.1491 3.67154 10.34 3.63431 10.4697L3.11587 10.8699C2.96869 10.78 2.78211 10.7784 2.63034 10.6225C2.24598 10.2275 2.03749 9.42373 2.83385 9.43281Z" fill="black"/>
<path d="M12.81 5.20661C13.018 4.30136 13.1835 3.26178 13.4182 2.29459C13.4506 2.15868 13.6028 1.94853 13.4311 1.83119C13.6131 1.69398 13.7902 1.46462 14.0073 1.345C13.805 2.64134 13.2656 3.95967 12.81 5.20661Z" fill="#C47C4E"/>
<path d="M6.20078 2.86241L5.27299 2.08932C5.25344 1.77675 5.1018 0.690758 5.19834 0.492123C5.64535 1.22763 5.88816 2.06948 6.20078 2.86241Z" fill="#BF3D36"/>
<path d="M11.1544 8.63575C8.76072 9.0655 6.39116 9.61231 3.98076 9.954L4.53034 9.32618C5.07454 9.04507 5.61417 8.24786 6.10178 7.98562C6.36078 7.84524 7.01217 7.84874 7.3315 7.86368C7.35047 8.02115 6.72869 8.46972 7.11072 8.49086C7.29795 8.50187 7.88795 8.51802 8.02704 8.49669C8.17762 8.47311 8.61587 8.0719 8.29794 7.98804C8.08652 7.93282 7.74632 7.90585 7.51524 7.88732C7.65759 7.53583 8.27309 6.59897 8.65643 6.63895C9.03978 6.67894 10.7283 8.30448 11.1544 8.63575Z" fill="#B7443F"/>
<path d="M7.51473 7.88683C7.74582 7.90536 8.08625 7.93049 8.29744 7.98754C8.61353 8.07117 8.17736 8.47078 8.02653 8.4962C7.88928 8.51776 7.29928 8.50162 7.11022 8.49037C6.72818 8.46922 7.34996 8.02065 7.331 7.86319C7.39234 7.86548 7.45363 7.88271 7.51473 7.88683Z" fill="black"/>
</svg>
